<svg width="114" height="29" viewBox="0 0 114 29" fill="none" xmlns="http://www.w3.org/2000/svg">
<path d="M83.621 14.4743C83.6344 14.524 83.6459 14.5718 83.6631 14.6176C83.7914 14.9539 83.9178 15.2903 84.0001 15.6418C84.0288 15.7661 84.0595 15.8883 84.0939 16.0106C84.2031 16.4043 84.3218 16.796 84.4252 17.1915C84.5401 17.6291 84.6626 18.061 84.8177 18.4852C84.9671 18.8941 85.1585 19.2724 85.4783 19.5782C85.666 19.7578 85.8325 19.9622 86.0164 20.1476C86.1906 20.3234 86.3419 20.5183 86.4951 20.7113C86.6233 20.8718 86.6425 21.0476 86.5965 21.2291C86.5659 21.3495 86.5104 21.468 86.4472 21.5769C86.3649 21.7164 86.2634 21.8425 86.1734 21.9782C86.0547 22.154 85.9359 22.3279 85.8249 22.5075C85.6755 22.7463 85.5089 22.9795 85.4438 23.2584C85.3213 23.782 85.2524 24.3132 85.2102 24.8483C85.1796 25.2209 85.1528 25.5935 85.1107 25.9642C85.059 26.4266 84.9977 26.8871 84.8771 27.3381C84.8101 27.5903 84.7603 27.8464 84.6416 28.0814C84.6147 28.1368 84.5764 28.1941 84.6167 28.2687C84.7239 28.3241 84.8464 28.3088 84.9613 28.2859C85.1279 28.2534 85.2907 28.2094 85.463 28.2094C85.5032 28.2094 85.5472 28.1941 85.5855 28.1788C85.7425 28.1158 85.8976 28.047 86.0547 27.9859C86.1255 27.9572 86.2002 27.9266 86.2749 27.919C86.3878 27.9075 86.4721 27.8578 86.5525 27.7833C86.6655 27.6782 86.7765 27.5597 86.9125 27.4929C87.1154 27.3916 87.1997 27.189 87.3548 27.0476C87.462 26.9502 87.529 26.8107 87.6209 26.696C87.7071 26.5909 87.7588 26.4686 87.8201 26.3502C87.8775 26.2374 87.9637 26.1381 88.0116 26.0215C88.1609 25.6489 88.3926 25.3126 88.4864 24.917C88.4903 24.896 88.5056 24.8788 88.5132 24.8597C88.6128 24.6113 88.7066 24.361 88.8139 24.1145C88.9019 23.9119 88.9689 23.7056 89.0149 23.4916C89.0245 23.4514 89.0379 23.4094 89.0589 23.3731C89.2313 23.0654 89.2964 22.71 89.4802 22.4062C89.6257 22.1654 89.7636 21.9209 89.9091 21.6801C89.9417 21.6266 89.9857 21.5788 90.0259 21.5291C90.1025 21.4355 90.2001 21.3916 90.3246 21.4011C90.5084 21.4145 90.6903 21.424 90.8742 21.4336C91.2341 21.4527 91.5941 21.4737 91.9522 21.4852C92.2279 21.4928 92.5036 21.489 92.7794 21.4852C93.013 21.4852 93.2466 21.4833 93.4782 21.4737C93.6889 21.4661 93.9014 21.4527 94.112 21.4393C94.2882 21.4279 94.4644 21.4107 94.6386 21.3954C94.7573 21.3839 94.878 21.3724 94.9967 21.3591C95.2571 21.3304 95.5156 21.3037 95.7741 21.2731C95.8085 21.2693 95.8468 21.2654 95.8775 21.2482C95.9789 21.1909 96.0862 21.1871 96.1992 21.1756C96.6281 21.1317 97.0512 21.0476 97.4686 20.9349C97.7137 20.868 97.9627 20.824 98.2001 20.7304C98.449 20.6349 98.7133 20.5756 98.9698 20.4935C99.1785 20.4266 99.3853 20.3578 99.5883 20.2794C99.8506 20.1763 100.113 20.0712 100.364 19.9431C100.507 19.8686 100.657 19.8036 100.81 19.754C100.906 19.7234 100.992 19.6794 101.076 19.6298C101.191 19.5629 101.308 19.4941 101.426 19.4329C101.584 19.3527 101.746 19.2839 101.901 19.1979C102.049 19.1157 102.189 19.0202 102.336 18.9342C102.415 18.8884 102.506 18.8597 102.577 18.8043C102.822 18.6132 103.113 18.4947 103.357 18.296C103.516 18.168 103.694 18.0629 103.868 17.9578C104.036 17.8565 104.176 17.717 104.343 17.61C104.611 17.4419 104.867 17.2546 105.097 17.031C105.206 16.924 105.344 16.8457 105.471 16.7559C105.511 16.7272 105.562 16.7119 105.595 16.6775C105.727 16.5304 105.919 16.4482 106.032 16.2782C106.047 16.2552 106.076 16.2438 106.097 16.2246C106.194 16.1444 106.294 16.0641 106.392 15.9858C106.413 15.9705 106.437 15.959 106.472 15.9399C106.482 15.9801 106.493 16.0049 106.493 16.0317C106.493 16.152 106.497 16.2724 106.493 16.3909C106.474 16.8782 106.378 17.3559 106.277 17.8317C106.175 18.2998 106.066 18.768 105.98 19.24C105.926 19.5304 105.903 19.8266 105.938 20.1228C105.945 20.1896 105.938 20.2661 106.001 20.3177C106.022 20.3177 106.043 20.3234 106.062 20.3196C106.476 20.2431 106.818 20.0158 107.173 19.8113C107.19 19.8017 107.205 19.7845 107.221 19.7693C107.397 19.6068 107.584 19.454 107.747 19.2801C107.887 19.1329 108.008 18.9648 108.126 18.7985C108.207 18.6839 108.26 18.5501 108.339 18.4336C108.431 18.2979 108.496 18.1508 108.544 17.9941C108.559 17.9406 108.582 17.889 108.601 17.8355C108.772 17.3482 108.913 16.8552 108.971 16.3393C109.001 16.0584 109.024 15.7775 109.066 15.5004C109.135 15.0399 109.133 14.5737 109.176 14.1094C109.202 13.8151 109.208 13.5189 109.227 13.2227C109.241 13.0183 109.252 12.8138 109.273 12.6113C109.308 12.3093 109.346 12.0093 109.392 11.7093C109.449 11.3176 109.534 10.9335 109.693 10.5686C109.784 10.3565 109.859 10.1348 109.94 9.91698C109.974 9.82526 109.993 9.72589 110.037 9.6399C110.169 9.38385 110.307 9.12971 110.451 8.8813C110.573 8.66729 110.648 8.42843 110.818 8.24117C110.838 8.22015 110.845 8.19149 110.857 8.16665C111.035 7.8227 111.2 7.4711 111.399 7.13862C111.456 7.04117 111.512 6.94371 111.563 6.84244C111.634 6.70486 111.705 6.56728 111.764 6.42588C111.856 6.20422 111.939 5.97874 112.029 5.75708C112.159 5.43797 112.297 5.12077 112.425 4.79975C112.511 4.58383 112.578 4.36026 112.662 4.14434C112.749 3.92077 112.85 3.70293 112.938 3.48128C113.001 3.32459 113.053 3.16408 113.11 3.00548C113.147 2.90611 113.195 2.81057 113.222 2.7093C113.281 2.47235 113.419 2.25643 113.426 2.00229C113.426 1.96407 113.457 1.92585 113.476 1.88764C113.497 1.84369 113.524 1.80165 113.541 1.75579C113.635 1.50547 113.737 1.25706 113.815 1.00101C113.886 0.771709 113.934 0.536676 113.989 0.303554C113.997 0.27107 114.003 0.229031 113.991 0.200369C113.978 0.164063 113.947 0.118203 113.915 0.108649C113.786 0.0723427 113.656 0.0303042 113.524 0.0245717C113.174 0.00928502 112.842 0.0780752 112.521 0.236675C112.08 0.45451 111.682 0.729671 111.305 1.03923C111.196 1.12904 111.1 1.23222 110.997 1.32776C110.859 1.45961 110.719 1.58764 110.583 1.7214C110.223 2.07108 109.915 2.46853 109.53 2.79337C109.503 2.8163 109.484 2.84688 109.459 2.87172C109.12 3.21185 108.781 3.55198 108.442 3.8902C108.423 3.9093 108.396 3.92459 108.377 3.9437C108.325 3.99147 108.274 4.03924 108.226 4.09083C108.061 4.27427 107.906 4.46727 107.732 4.64307C107.326 5.05007 106.977 5.50294 106.619 5.94817C106.213 6.45454 105.846 6.98957 105.515 7.54945C105.49 7.58958 105.457 7.62588 105.428 7.66601C105.206 7.61442 104.996 7.56283 104.781 7.51888C104.138 7.38703 103.496 7.24754 102.832 7.24945C102.558 7.24945 102.282 7.2418 102.009 7.24945C101.597 7.259 101.191 7.31251 100.785 7.3641C100.463 7.40423 100.146 7.48066 99.8296 7.54945C99.6706 7.58384 99.5136 7.62588 99.3604 7.67747C99.1268 7.75582 98.8971 7.84754 98.6635 7.92779C98.2748 8.06155 97.8956 8.21633 97.5357 8.41124C97.1814 8.60232 96.831 8.79914 96.4825 9.00169C96.0555 9.25009 95.6439 9.52334 95.2494 9.82143C94.9182 10.0718 94.5946 10.3355 94.2805 10.6106C93.8172 11.0157 93.371 11.4361 92.9421 11.8756C92.9211 11.8966 92.9076 11.9253 92.8693 11.9845C92.9345 11.9597 92.9593 11.9501 92.9842 11.9406C93.2083 11.8355 93.4304 11.7265 93.6563 11.6272C93.8957 11.5221 94.1293 11.4093 94.359 11.2832C94.5065 11.203 94.6635 11.1208 94.8263 11.0883C95.1269 11.0291 95.3586 10.796 95.6707 10.773C95.6975 10.7711 95.7205 10.7482 95.7453 10.7348C95.8775 10.6698 96.0077 10.5915 96.1455 10.5456C96.3523 10.4769 96.5668 10.4329 96.7793 10.3775C96.8272 10.3641 96.8731 10.345 96.921 10.3335C97.0436 10.3011 97.1661 10.2686 97.2887 10.2399C97.3365 10.2284 97.3863 10.2304 97.4342 10.2189C97.819 10.1329 98.2039 10.0374 98.6041 10.0469C98.6539 10.0469 98.7037 10.0412 98.7515 10.0335C98.9488 10.0011 99.146 10.0049 99.3432 10.0259C99.3987 10.0316 99.4562 10.0393 99.5117 10.045C99.7645 10.0641 100.019 10.0756 100.272 10.1023C100.44 10.1195 100.609 10.1482 100.774 10.1902C100.952 10.2361 101.124 10.2972 101.296 10.3622C101.4 10.4004 101.421 10.4577 101.386 10.5648C101.367 10.624 101.344 10.687 101.306 10.7367C101.16 10.9278 101.022 11.1265 100.856 11.2966C100.664 11.4934 100.448 11.6654 100.239 11.8469C99.9636 12.0877 99.6553 12.2902 99.393 12.5482C99.2666 12.6724 99.146 12.8004 99.0196 12.9246C98.7171 13.2227 98.4567 13.559 98.2077 13.8992C97.9378 14.268 97.6812 14.6482 97.4246 15.0285C97.2389 15.3036 97.0646 15.5845 96.8827 15.8616C96.7429 16.0737 96.6051 16.2877 96.4596 16.4941C96.2777 16.754 96.0938 17.0138 95.8966 17.2622C95.6726 17.5431 95.4543 17.8336 95.1977 18.082C94.8588 18.4087 94.5046 18.7278 94.0565 18.9132C94.0297 18.9247 94.0067 18.9399 93.9818 18.9533C93.6736 19.1406 93.3366 19.2724 93.0034 19.41C92.7621 19.5094 92.5094 19.5763 92.2566 19.6431C91.6764 19.7941 91.0924 19.8724 90.4931 19.8266C90.3112 19.8132 90.1255 19.7845 89.9531 19.7291C89.62 19.624 89.3213 19.4501 89.0589 19.2151C88.9651 19.131 88.8483 19.0603 88.7794 18.9591C88.6473 18.7603 88.4596 18.5979 88.3715 18.3705C88.0786 17.952 87.8699 17.4896 87.6401 17.0387C87.5252 16.8132 87.4256 16.5762 87.2859 16.368C87.1442 16.1578 86.9986 15.9514 86.8512 15.745C86.6999 15.5329 86.5219 15.3418 86.3227 15.1699C85.8881 14.7953 85.3826 14.566 84.8235 14.4724C84.4903 14.4151 84.1495 14.3998 83.8086 14.4132C83.7474 14.4151 83.6803 14.4036 83.6152 14.4781L83.621 14.4743Z" fill="white"/>
<path d="M83.6201 14.4745C83.6852 14.4 83.7522 14.4114 83.8135 14.4095C84.1543 14.3981 84.4952 14.4133 84.8283 14.4688C85.3875 14.5643 85.893 14.7917 86.3276 15.1662C86.5267 15.3382 86.7048 15.5293 86.8561 15.7414C87.0035 15.9478 87.151 16.1541 87.2907 16.3643C87.4305 16.5726 87.532 16.8095 87.645 17.035C87.8748 17.4879 88.0835 17.9503 88.3764 18.3669C88.4664 18.5943 88.6522 18.7567 88.7843 18.9554C88.8532 19.0567 88.9681 19.1274 89.0638 19.2115C89.3415 19.4599 89.6593 19.6395 90.0155 19.7427C90.1476 19.7809 90.2855 19.8038 90.4233 19.8172C91.0475 19.8745 91.6564 19.7981 92.2615 19.6395C92.5143 19.5726 92.767 19.5057 93.0083 19.4064C93.3491 19.265 93.6957 19.1312 94.0116 18.9344C94.0269 18.9248 94.0442 18.9153 94.0614 18.9095C94.5095 18.7242 94.8637 18.407 95.2026 18.0783C95.4592 17.8299 95.6794 17.5395 95.9015 17.2586C96.0987 17.0102 96.2806 16.7503 96.4644 16.4904C96.61 16.2821 96.7478 16.07 96.8876 15.8579C97.0695 15.5809 97.2438 15.3 97.4295 15.0248C97.6861 14.6446 97.9427 14.2643 98.2126 13.8955C98.4616 13.5535 98.722 13.2191 99.0245 12.921C99.1509 12.7968 99.2715 12.6688 99.3979 12.5445C99.6602 12.2866 99.9685 12.084 100.244 11.8433C100.451 11.6617 100.669 11.4898 100.861 11.293C101.027 11.121 101.165 10.9242 101.311 10.7331C101.349 10.6834 101.37 10.6203 101.391 10.5611C101.428 10.456 101.405 10.3987 101.301 10.3586C101.129 10.2936 100.957 10.2324 100.778 10.1866C100.614 10.1445 100.445 10.1159 100.277 10.0987C99.3787 10.0031 98.5113 9.97638 97.6171 10.1751C97.2878 10.2477 96.9604 10.3108 96.6349 10.4006C96.1274 10.542 95.6162 10.7006 95.1547 10.9509C94.4175 11.3503 93.0198 12.2006 92.8723 11.977C92.8302 11.87 93.2112 11.5127 93.5348 11.2891C93.8125 11.0961 94.0308 10.8286 94.2854 10.605C94.5994 10.3299 94.9211 10.0681 95.2543 9.81587C95.6487 9.51778 96.0604 9.24453 96.4874 8.99613C96.8244 8.79931 97.1653 8.60822 97.5099 8.42287C97.8546 8.23752 98.2471 8.06746 98.6339 7.93561C98.879 7.85153 99.1202 7.75599 99.3653 7.67382C99.5185 7.62223 99.6774 7.58019 99.8345 7.5458C100.152 7.47892 100.47 7.40249 100.79 7.36045C101.196 7.30886 101.602 7.25344 102.013 7.2458C102.289 7.24007 102.563 7.24771 102.837 7.2458C103.501 7.24389 104.143 7.38338 104.786 7.51523C104.999 7.55918 105.211 7.61268 105.433 7.66236C105.464 7.62223 105.496 7.58593 105.519 7.5458C105.851 6.98592 106.218 6.45089 106.624 5.94452C106.982 5.49929 107.331 5.04642 107.737 4.63942C107.907 4.46935 108.06 4.284 108.217 4.10247C108.267 4.04515 108.325 3.99355 108.38 3.94196C108.401 3.92285 108.426 3.90948 108.445 3.88846C108.784 3.54833 109.123 3.21011 109.462 2.86998C109.487 2.84514 109.506 2.81457 109.533 2.79164C109.918 2.46679 110.226 2.06934 110.586 1.71966C110.764 1.54577 110.948 1.37762 111.128 1.20564C111.21 1.1273 111.294 1.04895 111.382 0.978251C111.737 0.691625 112.112 0.439395 112.524 0.234935C112.843 0.0763357 113.177 0.00754552 113.527 0.0228322C113.659 0.0285647 113.789 0.0706032 113.918 0.106909C113.95 0.116463 113.979 0.162323 113.994 0.198629C114.006 0.229203 114 0.26933 113.992 0.301814C113.874 0.798632 113.72 1.27825 113.55 1.75978L113.38 2.26233C113.301 2.51265 113.205 2.76106 113.115 3.00374C113.058 3.16234 113.004 3.32285 112.943 3.47954C112.855 3.70119 112.753 3.91903 112.667 4.1426C112.583 4.35852 112.516 4.58209 112.43 4.79802C112.303 5.11904 112.164 5.43623 112.033 5.75534C111.944 5.977 111.861 6.20248 111.769 6.42414C111.706 6.57509 111.629 6.72223 111.555 6.86936C111.509 6.96108 111.457 7.05089 111.404 7.13879C111.204 7.47128 111.042 7.82287 110.862 8.16682C110.848 8.19166 110.841 8.22224 110.823 8.24134C110.653 8.42669 110.578 8.66746 110.456 8.88147C110.312 9.13179 110.174 9.38594 110.042 9.64008C109.998 9.72606 109.979 9.82543 109.944 9.91715C109.864 10.135 109.791 10.3547 109.697 10.5687C109.539 10.9356 109.454 11.3197 109.397 11.7095C109.353 12.0095 109.313 12.3095 109.278 12.6114C109.255 12.814 109.244 13.0184 109.232 13.2229C109.213 13.5191 109.207 13.8153 109.18 14.1095C109.14 14.5662 109.142 15.0267 109.075 15.4815C109.043 15.7051 109.008 15.9267 108.993 16.1522C108.953 16.735 108.798 17.2892 108.608 17.8357C108.589 17.8892 108.568 17.9408 108.551 17.9943C108.505 18.1509 108.439 18.2962 108.346 18.4338C108.267 18.5503 108.214 18.6841 108.133 18.7987C108.016 18.965 107.896 19.1331 107.754 19.2803C107.578 19.4656 107.377 19.628 107.189 19.8019C107.185 19.8057 107.183 19.8076 107.18 19.8096C106.825 20.014 106.483 20.2414 106.069 20.3178C106.05 20.3217 106.029 20.3178 106.008 20.3159C105.943 20.2624 105.952 20.1879 105.945 20.121C105.91 19.8248 105.933 19.5268 105.987 19.2382C106.075 18.7662 106.184 18.3 106.283 17.8299C106.385 17.3541 106.481 16.8764 106.5 16.3892C106.506 16.2688 106.502 16.1503 106.5 16.0299C106.5 16.0051 106.488 15.9783 106.479 15.9382C106.444 15.9573 106.419 15.9669 106.398 15.9841C106.299 16.0624 106.201 16.1446 106.103 16.2229C106.082 16.2401 106.052 16.2535 106.038 16.2764C105.925 16.4465 105.734 16.5267 105.602 16.6758C105.571 16.7102 105.518 16.7274 105.477 16.7541C105.351 16.8439 105.213 16.9223 105.104 17.0293C104.874 17.2529 104.618 17.4401 104.349 17.6083C104.181 17.7134 104.043 17.8529 103.875 17.956C103.698 18.0611 103.52 18.1662 103.363 18.2943C103.12 18.4911 102.829 18.6115 102.584 18.8025C102.513 18.858 102.421 18.8847 102.343 18.9325C102.197 19.0185 102.058 19.1159 101.908 19.1962C101.753 19.2803 101.59 19.349 101.433 19.4312C101.315 19.4924 101.2 19.5611 101.083 19.628C100.997 19.6777 100.911 19.7217 100.813 19.7541C100.673 19.8 100.535 19.8554 100.405 19.9242C100.143 20.0637 99.867 20.1726 99.5913 20.2815C99.3883 20.3618 99.1796 20.4306 98.9728 20.4955C98.7162 20.5777 98.4539 20.6369 98.2031 20.7325C97.5463 20.9866 96.8225 21.0803 96.1274 21.2006C95.8115 21.2561 95.2907 21.3268 94.9709 21.3612C94.8618 21.3726 94.7507 21.3841 94.6416 21.3936C94.4654 21.4089 94.2912 21.4261 94.115 21.4376C93.9044 21.451 93.6918 21.4662 93.4812 21.472C93.2476 21.4796 93.014 21.4815 92.7823 21.4834C92.5066 21.4834 92.2309 21.4911 91.9551 21.4834C91.5952 21.472 91.2352 21.451 90.8771 21.4319C90.6933 21.4223 90.5114 21.4127 90.3276 21.3994C90.205 21.3898 90.1074 21.4338 90.0289 21.5274C89.9887 21.5771 89.9446 21.6229 89.9121 21.6784C89.5636 22.2592 89.2534 22.8325 89.0409 23.4879C88.7594 24.3535 88.4358 25.2038 88.0222 26.014C87.825 26.4 87.5971 26.7975 87.3061 27.1242C87.1299 27.3211 86.9269 27.493 86.7221 27.6593C86.4329 27.8924 86.0806 28.0395 85.7245 28.1408C85.5387 28.1924 85.3492 28.2325 85.1577 28.2612C85.0256 28.2803 84.7766 28.3548 84.6541 28.286C84.5679 28.2363 84.612 28.1523 84.6445 28.0854C84.7632 27.8504 84.813 27.5924 84.88 27.3421C85.0007 26.8892 85.0619 26.4268 85.1136 25.9625C85.1519 25.6261 85.1807 25.2879 85.2056 24.9516C85.2477 24.3822 85.3166 23.8185 85.4468 23.2624C85.5119 22.9815 85.6766 22.7503 85.8279 22.5115C85.9408 22.3319 86.0595 22.158 86.1763 21.9822C86.2663 21.8484 86.3697 21.7204 86.4502 21.5809C86.5133 21.472 86.5689 21.3535 86.5995 21.2331C86.6455 21.0497 86.6263 20.8739 86.498 20.7153C86.3429 20.5223 86.1936 20.3274 86.0193 20.1516C85.8355 19.9662 85.6689 19.7618 85.4813 19.5822C85.1615 19.2745 84.97 18.8981 84.8207 18.4892C84.6618 18.0535 84.5354 17.6102 84.4186 17.163C84.3362 16.8439 84.252 16.5267 84.1543 16.2114C84.0969 16.0242 84.0471 15.835 84.0012 15.6458C83.9188 15.2942 83.7905 14.9579 83.6642 14.6216C83.6469 14.5758 83.6373 14.528 83.622 14.4783L83.6201 14.4745Z" fill="white"/>
<path d="M93.7954 16.2608C93.5886 15.9665 93.3952 15.6646 93.1903 15.3684C93.062 15.183 92.9222 15.0053 92.7901 14.8219C92.591 14.5486 92.3976 14.2716 92.1946 14.0021C91.9744 13.7098 91.7485 13.4232 91.5244 13.1346C91.423 13.0047 91.3234 12.8748 91.2219 12.7448C91.1932 12.7085 91.1645 12.6722 91.1377 12.6359C91.0668 12.5442 90.994 12.4525 90.9232 12.3626C90.9232 12.3607 90.9194 12.3588 90.9175 12.3569C90.9117 12.3493 90.906 12.3435 90.9002 12.3359C90.7987 12.2098 90.6934 12.0894 90.5824 11.9709C90.41 11.7837 90.2396 11.5964 90.0577 11.4187C89.8605 11.2276 89.6518 11.048 89.4488 10.8626C89.4335 10.8493 89.4201 10.8302 89.4067 10.8149C89.2439 10.6295 89.0869 10.4403 88.9146 10.2626C88.6312 9.96646 88.3497 9.67219 88.1449 9.31295C88.03 9.1104 87.9017 8.9155 87.7945 8.71104C87.6145 8.35944 87.4728 7.99065 87.3349 7.61995C87.266 7.4346 87.1932 7.25116 87.1262 7.06581C87.019 6.77536 86.9251 6.47918 86.8083 6.19255C86.6552 5.81421 86.4905 5.43969 86.3258 5.06707C86.1324 4.6314 85.8356 4.2607 85.5388 3.89382C85.4431 3.77535 85.3206 3.67407 85.1961 3.58044C84.8955 3.35496 84.5757 3.1677 84.2081 3.0626C83.9285 2.98235 83.6471 2.92502 83.3579 2.88872C83.333 2.8849 83.3043 2.89827 83.2718 2.90592C83.2641 3.10655 83.3158 3.28808 83.3924 3.46197C83.4824 3.6607 83.58 3.85751 83.6834 4.0486C83.8787 4.40783 84.0836 4.76325 84.2789 5.12058C84.4225 5.38236 84.5183 5.66134 84.6044 5.94606C84.614 5.98045 84.6044 6.02249 84.6025 6.06835C84.5585 6.06262 84.5298 6.06453 84.5049 6.05498C84.3536 5.99574 84.2004 5.93841 84.0549 5.86962C83.4805 5.59446 82.885 5.37472 82.2952 5.13777C82.0922 5.05561 81.8759 5.00975 81.6729 4.92758C81.2115 4.74032 80.727 4.63522 80.2483 4.52057C80.1277 4.49191 80.009 4.46516 79.8883 4.44223C79.8443 4.43267 79.7983 4.42503 79.7543 4.41739C79.6777 4.4021 79.6011 4.38681 79.5226 4.37344C79.4594 4.36197 79.3982 4.35242 79.335 4.34095C79.2488 4.32567 79.1607 4.31038 79.0746 4.297C78.9731 4.27981 78.8716 4.26261 78.772 4.24541C78.6284 4.22057 78.481 4.21102 78.3335 4.19573C78.2933 4.19191 78.2531 4.18809 78.2148 4.18235C78.1612 4.17662 78.1076 4.17089 78.0559 4.16516C78.0521 4.16516 78.0463 4.16516 78.0425 4.16516C77.9965 4.16134 77.9506 4.1556 77.9046 4.15178C77.8893 4.15178 77.8721 4.14987 77.8568 4.14796C77.8223 4.14414 77.7878 4.14223 77.7534 4.14032C77.7342 4.14032 77.7151 4.13841 77.6959 4.13649C77.6634 4.13458 77.6308 4.13267 77.5983 4.13076C77.5791 4.13076 77.56 4.12885 77.5408 4.12694C77.5064 4.12694 77.4719 4.12503 77.4374 4.12312C77.4202 4.12312 77.4049 4.12312 77.3876 4.12312C77.3359 4.12312 77.2862 4.12312 77.2345 4.12312C77.0296 4.12694 76.8247 4.12503 76.6198 4.12503C76.323 4.12503 76.0281 4.12503 75.7314 4.16898C75.5016 4.20337 75.268 4.20911 75.0363 4.23586C74.7625 4.26834 74.4906 4.30465 74.2168 4.34669C73.9315 4.39064 73.6443 4.43841 73.3609 4.49191C72.9798 4.56261 72.6198 4.7193 72.2331 4.77663C72.2063 4.78045 72.1794 4.79573 72.1526 4.80338C71.7505 4.91229 71.3676 5.07854 70.9616 5.1779C70.8219 5.2123 70.6936 5.16644 70.5787 5.08809C70.5749 5.08427 70.5691 5.08045 70.5653 5.07472C70.5308 5.03841 70.4964 5.00401 70.4657 4.96389C70.4083 4.89128 70.347 4.82631 70.2647 4.78045C70.2589 4.77662 70.2532 4.7728 70.2494 4.76898C70.2149 4.73076 70.1823 4.69446 70.1517 4.66197C70.0923 4.59892 70.033 4.53586 69.9755 4.47089C69.786 4.23586 69.5868 4.00656 69.4126 3.76197C69.2326 3.50974 69.0699 3.24413 68.8707 3.00719C68.7884 2.90974 68.7137 2.80846 68.6314 2.71101C68.4361 2.48171 68.2714 2.22757 68.0359 2.02884C67.7774 1.80718 67.515 1.59699 67.2049 1.45177C66.9406 1.32756 66.6611 1.23775 66.3758 1.20909C66.1039 1.18234 65.8262 1.16705 65.5524 1.21482C65.4567 1.23202 65.3609 1.25495 65.2633 1.27406C65.248 1.38871 65.3054 1.43839 65.3475 1.4919C65.6118 1.83776 65.7803 2.23521 65.9507 2.62884C66.0828 2.93267 66.1728 3.25178 66.2953 3.56133C66.46 3.97981 66.5902 4.41739 66.8334 4.80147C66.9081 4.91994 66.9923 5.0365 67.0919 5.13204C67.291 5.32121 67.5055 5.4951 67.7123 5.67663C67.8348 5.78364 67.9574 5.88873 68.0474 6.02822C68.1048 6.11612 68.1374 6.20975 68.1105 6.30912C68.0665 6.483 68.0014 6.63778 67.9267 6.79447C67.8769 6.86517 67.8272 6.93587 67.8004 7.01422C67.7889 7.04861 67.7755 7.08109 67.7621 7.11358C67.5897 7.42313 67.3887 7.74224 67.3083 8.08428C67.2968 8.13014 67.2872 8.17409 67.2776 8.21995C67.2738 8.23333 67.2719 8.24862 67.27 8.26199C67.2642 8.29448 67.2566 8.32505 67.2508 8.35753C67.247 8.37473 67.2451 8.39002 67.2412 8.40722C67.2355 8.43779 67.2317 8.46836 67.2259 8.49894C67.224 8.51613 67.2202 8.53142 67.2183 8.54862C67.2125 8.58301 67.2087 8.61741 67.2049 8.6518C67.2049 8.66327 67.201 8.67473 67.201 8.68811C67.1953 8.73397 67.1915 8.77983 67.1895 8.8276C67.1895 8.83715 67.1895 8.84862 67.1895 8.86008C67.1876 8.89639 67.1857 8.9327 67.1838 8.969C67.1838 8.98429 67.1838 9.00149 67.1838 9.01677C67.1838 9.03397 67.1838 9.05308 67.1838 9.07028C67.1838 9.4792 67.1838 9.88811 67.18 10.297C67.18 10.3181 67.18 10.3391 67.18 10.3601C67.18 10.3773 67.18 10.3945 67.18 10.4098C67.18 10.4518 67.18 10.4938 67.18 10.5359C67.18 10.5875 67.18 10.6391 67.18 10.6907C67.18 10.7021 67.18 10.7136 67.18 10.727C67.18 10.7633 67.18 10.7996 67.18 10.8378C67.18 10.855 67.18 10.8722 67.18 10.8894C67.18 10.9219 67.1781 10.9544 67.1761 10.9868C67.1761 11.004 67.1761 11.0232 67.1723 11.0403C67.1704 11.0728 67.1685 11.1072 67.1646 11.1397C67.1646 11.155 67.1627 11.1722 67.1608 11.1875C67.1551 11.2353 67.1493 11.2849 67.1417 11.3327C67.1244 11.4378 67.1168 11.5429 67.113 11.648C67.1091 11.7454 67.1512 11.7894 67.2393 11.7818C67.3542 11.799 67.5227 11.7569 67.6453 11.7168C67.6453 11.7168 67.6472 11.7168 67.6491 11.7168C67.7027 11.7053 67.7582 11.6881 67.8061 11.6595C67.8425 11.6384 67.8769 11.6155 67.9133 11.5945C67.9516 11.5735 67.9918 11.5525 68.032 11.5372C68.0531 11.5295 68.0742 11.5181 68.0952 11.5104C68.1259 11.5009 68.1565 11.4951 68.1891 11.4932C68.2082 11.4932 68.2293 11.4779 68.2465 11.4665C68.3461 11.4015 68.4456 11.3365 68.5452 11.2716C68.5873 11.2448 68.6275 11.2181 68.6697 11.1875C68.7156 11.155 68.7616 11.1206 68.8075 11.0862C68.9799 10.9525 69.1196 10.7881 69.2154 10.5817C69.3035 10.3888 69.3743 10.1881 69.4547 9.9913C69.4988 9.89767 69.5447 9.80404 69.5888 9.7085C69.606 9.67792 69.6213 9.64735 69.6405 9.61678C69.6558 9.59193 69.6558 9.55754 69.6615 9.52697V9.52314C69.7017 9.40467 69.7362 9.28429 69.7707 9.16391C69.8166 9.04352 69.8568 8.92314 69.8664 8.79129C69.8855 8.71104 69.9047 8.62887 69.9238 8.54862C69.9296 8.5276 69.9372 8.50467 69.943 8.48365C69.9602 8.41486 69.987 8.34798 69.987 8.27919C69.987 8.27919 69.987 8.27537 69.987 8.27346C70.0081 8.176 70.0292 8.08046 70.0521 7.98492C70.0521 7.9811 70.0521 7.97728 70.054 7.97345C70.0636 7.9467 70.0751 7.92186 70.0866 7.89511C70.1479 7.75562 70.1938 7.6104 70.2149 7.45944C70.2608 7.38492 70.3183 7.31231 70.3719 7.24543C70.4561 7.17855 70.5327 7.10402 70.5787 6.99893C70.6112 6.96262 70.6457 6.92823 70.6802 6.89383C70.7931 6.85753 70.8659 6.77727 70.9368 6.68937C70.9502 6.67218 70.9655 6.65689 70.9789 6.63969C71.0191 6.61103 71.0593 6.58237 71.0995 6.55752C71.1493 6.52695 71.201 6.49829 71.2508 6.46963C71.268 6.46581 71.2852 6.46198 71.3025 6.46007C71.3427 6.45625 71.3925 6.44287 71.4193 6.41612C71.4557 6.38364 71.492 6.3588 71.5323 6.33778C71.5629 6.32631 71.5954 6.31294 71.6261 6.30147C71.7237 6.27281 71.829 6.26326 71.9324 6.24797C72.0588 6.22886 72.1871 6.21931 72.3077 6.183C72.3901 6.15816 72.4724 6.14478 72.5547 6.13905C72.5911 6.13905 72.6275 6.13714 72.6658 6.13905C72.6926 6.13905 72.7213 6.13905 72.7481 6.14096C72.7769 6.14096 72.8037 6.14478 72.8324 6.14861C72.909 6.15816 72.9875 6.15625 73.0641 6.15816C73.156 6.16198 73.246 6.16007 73.3379 6.16771C73.4145 6.17345 73.4911 6.18873 73.5696 6.19447C73.8798 6.21549 74.1861 6.26326 74.4848 6.34924C74.9003 6.46963 75.3005 6.62058 75.6605 6.8709C75.9899 7.1002 76.323 7.32377 76.6256 7.59129C76.7079 7.6639 76.7902 7.7346 76.8745 7.8053C76.9147 7.83779 76.9549 7.87218 76.9932 7.90467C77.0564 7.95626 77.1177 8.00785 77.1808 8.05944C77.244 8.11104 77.3053 8.16263 77.3685 8.21422C77.401 8.24097 77.4336 8.26964 77.4661 8.2983C77.5255 8.34989 77.5868 8.39957 77.6442 8.45116C77.9965 8.76263 78.3584 9.06072 78.7376 9.3397C78.7471 9.34735 78.7586 9.35499 78.7682 9.36263C78.772 9.36646 78.7759 9.36837 78.7797 9.37219C78.8161 9.39894 78.8544 9.42569 78.8907 9.45244C78.9252 9.47728 78.9616 9.50404 78.9961 9.52888C79.0784 9.58811 79.1626 9.64544 79.2469 9.69894C79.4365 9.82123 79.6241 9.94926 79.8271 10.0448C80.2234 10.2321 80.6294 10.3945 81.0296 10.5722C81.3014 10.6945 81.5504 10.855 81.7687 11.0595C81.8184 11.1072 81.8797 11.1493 81.8874 11.2372C81.874 11.2544 81.8625 11.2811 81.8414 11.2983C81.5599 11.5028 81.2459 11.6461 80.9319 11.7932C80.6677 11.9155 80.3843 11.9862 80.1028 12.0435C79.7639 12.1142 79.4231 12.1773 79.0784 12.2079C78.929 12.2212 78.7778 12.227 78.6284 12.2289C78.391 12.2327 78.1536 12.2232 77.9161 12.2117C77.7036 12.2002 77.491 12.1869 77.2785 12.1754C77.2594 12.1754 77.2402 12.1716 77.2191 12.1697C77.1828 12.1658 77.1464 12.162 77.11 12.1563C76.7347 12.097 76.3537 12.0626 75.9822 11.9786C75.6375 11.9002 75.289 11.8486 74.9406 11.7875C74.9157 11.7837 74.8889 11.7875 74.8257 11.7913C74.8793 11.8391 74.9042 11.8716 74.9367 11.8907C75.3637 12.141 75.8003 12.3741 76.2484 12.5786C76.5949 12.7372 76.9453 12.8843 77.2996 13.0295C77.4815 13.1041 77.671 13.1671 77.8606 13.2225C78.1593 13.3085 78.4618 13.3773 78.7605 13.4614C79.3484 13.6257 79.9515 13.7117 80.5566 13.7404C81.064 13.7633 81.5753 13.792 82.0788 13.6964C82.0827 13.6964 82.0865 13.6964 82.0923 13.6945C82.2282 13.6792 82.3661 13.6601 82.502 13.6391C82.7184 13.6142 82.9347 13.5894 83.1435 13.5244C83.3196 13.4709 83.5034 13.4404 83.6719 13.3544C83.7198 13.3391 83.7696 13.3219 83.8175 13.3047C83.8232 13.3028 83.829 13.3009 83.8347 13.299C83.8596 13.2932 83.8845 13.2894 83.9094 13.2856C84.0243 13.2684 84.1257 13.2263 84.2272 13.1748C84.3402 13.1155 84.457 13.0697 84.5719 13.0162C84.7883 12.9149 85.0238 12.8556 85.2191 12.7085C85.2574 12.6798 85.3014 12.655 85.3435 12.634C85.3684 12.6206 85.3952 12.6072 85.4201 12.5939C85.4393 12.5843 85.4584 12.5748 85.4757 12.5671C85.5101 12.5518 85.5369 12.5423 85.5637 12.5404C85.5905 12.5365 85.6135 12.5404 85.6384 12.5499C85.6748 12.5633 85.7131 12.5919 85.7629 12.6378C85.7782 12.6512 85.7935 12.6665 85.8088 12.6818C86.0635 12.9263 86.3373 13.1461 86.6169 13.3639C87.1741 13.7996 87.7811 14.1627 88.3766 14.5391C88.7212 14.7569 89.085 14.9499 89.4412 15.1525C89.9141 15.42 90.389 15.6856 90.86 15.9531C91.31 16.2073 91.7657 16.4423 92.2616 16.6009C92.7537 16.7576 93.2343 16.748 93.7111 16.5512C93.8317 16.5015 93.9007 16.4117 93.8011 16.2703L93.7954 16.2608Z" fill="white"/>
<path d="M41.7333 25.9142C41.2534 26.5835 40.7755 27.2208 40.1469 27.7258C39.8216 27.9883 39.4763 28.2147 39.0967 28.3951C38.171 28.8359 37.3035 28.7377 36.4782 28.1526C35.7995 27.6737 35.3256 27.0324 34.9943 26.2789C34.8417 25.9323 34.7011 25.5816 34.5465 25.2108C33.9501 26.3451 33.2373 27.329 32.167 27.9983C31.2352 28.5814 30.2473 28.7618 29.185 28.351C28.6509 28.1446 28.2754 27.7759 27.9862 27.3049C27.5806 26.6457 27.43 25.9082 27.3316 25.1547C27.3195 25.0586 27.3517 24.9544 27.2734 24.8682C27.175 24.9103 27.1669 25.0105 27.1288 25.0906C26.7111 25.9483 26.2091 26.7479 25.4701 27.3751C24.6207 28.0965 23.6408 28.4392 22.5283 28.2788C21.5323 28.1346 20.8295 27.5655 20.3717 26.6797C19.5002 25.0004 20.2231 23.0947 21.3155 22.0827C22.1066 21.3513 23.0605 20.9646 24.1026 20.7682C25.2191 20.5578 26.3015 20.2331 27.3738 19.8664C27.4581 19.8384 27.4983 19.7943 27.5083 19.7121C27.5987 18.8885 27.8356 18.0829 27.7894 17.2433C27.7613 16.7303 27.6509 16.2393 27.4159 15.7824C27.179 15.3195 26.8095 15.027 26.2854 14.9268C25.7693 14.8286 25.2593 14.8145 24.7472 14.9348C23.9219 15.1271 23.2291 16.077 23.2994 16.9186C23.3557 17.5839 23.9059 17.9547 24.6428 17.8044C25.1348 17.7042 25.5665 17.4717 25.934 17.1311C26.0464 17.0269 26.0966 17.0008 26.185 17.1531C26.3758 17.4777 26.5484 17.8044 26.6107 18.1811C26.7011 18.7322 26.5404 19.1831 26.0806 19.5137C25.4079 19.9967 24.6448 20.1029 23.8416 20.0407C22.3737 19.9285 21.2592 18.4777 21.7512 16.7363C22.2713 14.8987 23.695 13.7444 25.6348 13.534C26.5926 13.4298 27.5183 13.5801 28.4179 13.8707C29.8818 14.3436 30.7392 15.3676 31.0364 16.8625C31.2674 18.0348 31.2071 19.2091 31.0143 20.3794C30.7995 21.6739 30.5806 22.9665 30.5404 24.281C30.5224 24.8562 30.5967 25.4253 30.7433 25.9804C30.9441 26.7338 31.4662 26.9342 32.1228 26.4934C32.6449 26.1447 33.0184 25.6537 33.3457 25.1267C33.6228 24.6818 33.8457 24.2089 34.0706 23.736C34.2192 23.4234 34.2272 23.1007 34.2031 22.7641C34.0846 21.0908 34.2112 19.4296 34.4521 17.7743C34.8336 15.1312 35.5003 12.5581 36.3477 10.0292C36.9541 8.21765 37.665 6.44819 38.5586 4.75688C39.2212 3.50444 39.9582 2.30209 40.9502 1.27208C41.3638 0.843238 41.8297 0.486541 42.3739 0.232043C43.6771 -0.379151 44.8438 0.25609 45.0165 1.67887C45.163 2.87521 44.9843 4.04149 44.6992 5.20376C44.1068 7.60846 43.163 9.8809 42.0867 12.1012C40.8718 14.6081 39.4823 17.0168 37.928 19.3314C37.7895 19.5358 37.7634 19.7642 37.7373 19.9927C37.5345 21.7521 37.5164 23.5055 37.9582 25.2369C38.0546 25.6176 38.2212 25.9723 38.4522 26.291C38.8397 26.83 39.418 26.9042 39.92 26.4653C40.5064 25.9523 40.906 25.301 41.2413 24.6077C41.3257 24.4333 41.2775 24.247 41.2514 24.0686C41.0064 22.4294 41.0506 20.7922 41.2453 19.153C41.3578 18.2192 41.5265 17.2994 41.92 16.4357C42.1128 16.0109 42.3478 15.6121 42.6711 15.2674C43.7514 14.1112 45.3297 14.0009 46.5606 14.9969C46.8779 15.2554 46.89 15.2594 46.7213 15.6361C46.0004 17.2393 45.4783 18.9105 45.1108 20.6219C44.8076 22.0346 44.5847 23.4614 44.665 24.9183C44.6952 25.4453 44.8016 25.9523 44.9843 26.4453C45.0345 26.5775 45.1048 26.6998 45.1952 26.81C45.6108 27.309 46.0847 27.341 46.5486 26.8881C47.1269 26.323 47.4623 25.6056 47.7675 24.8762C48.2574 23.7079 48.5346 22.4795 48.8317 21.2531C49.5004 18.4997 50.4462 15.8526 51.9844 13.4419C53.0727 11.7345 54.4101 10.2737 56.1812 9.24766C57.388 8.54829 58.6872 8.10543 60.0828 8.02527C61.8077 7.92708 63.4082 8.67654 64.0307 10.45C64.2576 11.0973 64.2435 11.7526 64.0568 12.4098C64.0186 12.5481 63.9704 12.6383 63.7997 12.5461C62.5969 11.9089 61.2917 11.967 60.0045 12.0672C57.6631 12.2515 55.9161 13.4639 54.5989 15.3436C53.5687 16.8124 52.8699 18.4436 52.2354 20.1049C51.888 21.0106 51.6129 21.9425 51.2213 22.8342C50.4522 24.5876 49.4824 26.1988 47.9683 27.4292C47.3538 27.9282 46.6731 28.3109 45.906 28.5173C44.6369 28.858 43.5707 28.5213 42.7092 27.5334C42.3558 27.1286 42.0968 26.6657 41.8719 26.1828C41.8317 26.0946 41.7875 26.0084 41.7353 25.9062L41.7333 25.9142ZM38.4582 16.1291C38.5827 15.8085 38.7353 15.582 38.8698 15.3456C40.3297 12.7625 41.655 10.1174 42.6369 7.31188C43.0405 6.16163 43.4261 4.99735 43.3116 3.74691C43.2956 3.55854 43.2976 3.35014 43.0767 3.26798C42.8518 3.18181 42.6751 3.278 42.5205 3.44232C42.1911 3.793 41.9723 4.21382 41.7715 4.64266C40.8498 6.61051 40.2473 8.69057 39.661 10.7726C39.2092 12.3758 38.8256 13.9989 38.4682 15.6261C38.4381 15.7624 38.3698 15.9047 38.4562 16.1311L38.4582 16.1291ZM27.3938 21.1229C27.3436 21.0207 27.4561 20.8303 27.2392 20.9064C26.6509 21.1128 26.0384 21.2511 25.4741 21.5216C24.8918 21.8002 24.432 22.207 24.1749 22.8082C23.9922 23.237 23.8476 23.6799 23.7954 24.1428C23.7412 24.6217 23.7191 25.1046 23.94 25.5595C24.2191 26.1347 24.8135 26.291 25.3376 25.9283C25.5043 25.814 25.6488 25.6778 25.7693 25.5154C26.7372 24.1969 27.0766 22.6539 27.3958 21.1209L27.3938 21.1229Z" fill="white"/>
<path d="M66.5347 25.5014C66.107 26.0905 65.6311 26.5975 65.0849 27.0404C63.5447 28.2828 61.7817 28.9181 59.8017 28.9341C57.6049 28.9521 55.9864 27.9602 54.9101 26.0765C54.137 24.7219 53.9202 23.251 54.0888 21.722C54.2977 19.8203 54.9704 18.0989 56.2334 16.6401C57.1792 15.5459 58.3459 14.7724 59.7897 14.5219C61.0949 14.2955 62.3801 14.3877 63.601 14.9788C64.8038 15.562 65.6271 16.6902 65.4765 18.1971C65.4102 18.8604 65.1813 19.4556 64.868 20.0247C64.1672 21.2952 63.119 22.231 61.9222 23.0205C61.0206 23.6157 60.0347 24.0385 59.0286 24.4233C58.7415 24.5335 58.633 24.3291 58.5025 24.1688C58.364 24.0024 58.3218 23.8141 58.4824 23.6257C58.5828 23.5095 58.7114 23.4293 58.8479 23.3692C60.1009 22.8181 60.8841 21.8322 61.364 20.5998C61.8399 19.3794 62.105 18.119 61.8519 16.8004C61.8138 16.606 61.7576 16.4136 61.6853 16.2273C61.5166 15.7904 61.1592 15.6421 60.7174 15.8165C60.378 15.9507 60.1411 16.2072 59.9262 16.4858C59.3278 17.2693 58.9704 18.1711 58.627 19.0808C58.0266 20.6719 57.7174 22.3031 57.8881 24.0085C57.9624 24.7559 58.1571 25.4613 58.613 26.0725C59.0728 26.6877 59.6953 27.0103 60.4704 27.0484C62.862 27.1666 64.5909 26.0264 65.9624 24.1988C66.0568 24.0726 66.0468 23.9423 66.0307 23.798C65.7074 20.7842 66.5508 18.155 68.7536 16.0369C70.1392 14.7043 71.85 14.2394 73.7577 14.4678C74.3099 14.5339 74.836 14.6682 75.342 14.8987C77.1211 15.7122 77.7978 17.2192 77.1994 19.0788C76.828 20.2331 76.1031 21.1589 75.2195 21.9665C73.9705 23.1087 72.4866 23.8522 70.9103 24.4313C70.6773 24.5154 70.5709 24.3611 70.4604 24.2169C70.3219 24.0345 70.2396 23.8421 70.4062 23.6277C70.4845 23.5255 70.587 23.4534 70.7014 23.4033C72.2958 22.6919 73.1111 21.3693 73.5649 19.7742C73.8621 18.7301 73.9243 17.6681 73.7255 16.596C73.7175 16.5479 73.7014 16.4998 73.6874 16.4517C73.4585 15.7022 72.8882 15.5319 72.2737 16.0269C71.8821 16.3415 71.6151 16.7543 71.3821 17.1871C70.5488 18.7382 69.9785 20.3834 69.7938 22.1328C69.6894 23.1267 69.7054 24.1347 70.0267 25.1146C70.3882 26.2128 71.1894 26.9482 72.2436 27.0364C73.091 27.1065 73.9223 27.0444 74.7235 26.7077C76.2978 26.0464 77.4946 24.9804 78.2979 23.4814C78.3521 23.3792 78.4043 23.273 78.4324 23.1608C78.4806 22.9784 78.5609 22.8582 78.7738 22.8803C78.9926 22.9023 79.2095 22.9143 79.2858 23.1848C79.3641 23.4614 79.338 23.7299 79.2436 23.9904C78.8722 25.0184 78.2497 25.8861 77.4585 26.6316C75.8259 28.1686 73.8761 28.9421 71.6331 28.9341C69.2918 28.9261 67.6592 27.7838 66.6411 25.7198C66.611 25.6597 66.5829 25.6016 66.5347 25.5054V25.5014Z" fill="white"/>
<path d="M7.39615 23.7241C7.27567 23.9826 7.17727 24.183 7.08892 24.3874C6.65719 25.3994 6.15317 26.3713 5.43228 27.2129C4.96039 27.764 4.42022 28.2249 3.72544 28.4774C2.76358 28.8281 1.6451 28.5315 0.96839 27.764C0.426217 27.1508 0.223405 26.4014 0.0908735 25.6279C-0.109931 24.4636 0.0567367 23.3133 0.255533 22.1631C0.418185 21.2293 0.681239 20.3215 0.890076 19.3997C1.18727 18.0871 1.31377 16.7645 1.23345 15.4219C1.22341 15.2416 1.2696 15.1514 1.45032 15.0993C2.01458 14.937 2.58688 14.8288 3.17323 14.8227C4.27564 14.8127 4.87404 15.3558 4.99653 16.4459C5.11501 17.504 4.92424 18.528 4.67324 19.546C4.34994 20.8665 3.94231 22.1671 3.72544 23.5117C3.60295 24.2812 3.49652 25.0587 3.63909 25.8403C3.75355 26.4775 4.20135 26.6759 4.75557 26.3372C5.01461 26.1789 5.22143 25.9625 5.40015 25.718C6.19132 24.6539 6.62305 23.4276 7.05077 22.1931C7.30378 21.4597 7.35197 20.7022 7.45438 19.9488C7.59495 18.9127 7.86603 17.9128 8.50258 17.0531C9.19134 16.1233 10.095 15.5762 11.2817 15.5802C11.9243 15.5822 12.4845 15.8227 12.9665 16.2435C13.0508 16.3177 13.091 16.3718 13.0026 16.486C12.2757 17.4238 11.8821 18.5119 11.5628 19.6361C11.1934 20.9347 10.9966 22.2633 10.8801 23.6039C10.8018 24.5077 10.9183 25.3934 11.1793 26.2611C11.2657 26.5456 11.4243 26.7881 11.6472 26.9865C11.9765 27.2791 12.348 27.2851 12.6833 26.9965C12.9002 26.8102 13.0669 26.5797 13.2054 26.3332C13.7496 25.3714 14.0809 24.3273 14.3641 23.2692C14.7255 21.9166 14.9946 20.5379 15.4183 19.2013C16.2275 16.6463 17.2958 14.2196 18.9725 12.0894C20.346 10.344 22.0428 9.04946 24.1854 8.39017C25.0549 8.12164 25.9465 7.96333 26.8722 8.0455C28.7035 8.20581 30.0369 9.4803 30.2276 11.2958C30.2698 11.6886 30.1975 12.0734 30.0509 12.4421C30.0007 12.5703 29.9626 12.6365 29.7859 12.5443C29.1433 12.2096 28.4586 12.0173 27.7216 12.0393C26.9063 12.0633 26.0891 12.0092 25.2778 12.1696C23.2597 12.5683 21.7597 13.6865 20.6513 15.3778C19.595 16.989 18.8741 18.7544 18.2296 20.5519C17.7255 21.9607 17.2135 23.3614 16.4123 24.6359C15.5569 25.9986 14.5267 27.1909 13.1131 28.0125C12.605 28.3071 12.0649 28.5255 11.4865 28.6317C10.2717 28.8522 9.32187 28.4073 8.61303 27.4374C7.90419 26.4675 7.56683 25.3553 7.41824 24.179C7.40217 24.0468 7.47446 23.9185 7.40217 23.7201L7.39615 23.7241Z" fill="white"/>
</svg>
