<svg xmlns="http://www.w3.org/2000/svg" width="226" height="91" viewBox="0 0 226 91" fill="none">
  <path d="M9.1293 68.5199H5.38353V80.5313C5.38353 81.2241 5.45931 81.7708 5.61629 82.1714C5.77326 82.572 6.01143 82.8805 6.33621 83.0916C6.66099 83.3027 7.05072 83.4326 7.50541 83.4759C7.9601 83.5192 8.49057 83.53 9.09682 83.5084V84.6126C8.44726 84.6559 7.81936 84.6505 7.2077 84.5964C6.59603 84.5423 6.05474 84.3745 5.58381 84.093C5.11288 83.8169 4.73939 83.3947 4.46333 82.8372C4.18186 82.2796 4.06818 81.511 4.11149 80.5313V68.5199H0.934082V67.4157H4.11149V62.0623H5.38353V67.4157H9.1293V68.5199Z" fill="white"/>
  <path d="M12.7447 60.7253V71.0966H12.8097C13.0316 70.4524 13.351 69.8732 13.7624 69.3752C14.1738 68.8718 14.6555 68.4442 15.2022 68.087C15.7489 67.7297 16.3444 67.4645 16.9939 67.2858C17.6381 67.1072 18.2984 67.0206 18.9696 67.0206C19.9765 67.0206 20.8263 67.1451 21.53 67.3887C22.2337 67.6323 22.8074 67.9571 23.2513 68.3576C23.6952 68.7582 24.047 69.2129 24.3068 69.7109C24.5612 70.2143 24.7453 70.7177 24.8589 71.2319C24.9726 71.7461 25.0376 72.2387 25.0592 72.7205C25.0809 73.2022 25.0917 73.619 25.0917 73.9763V84.6127H23.8196V73.7381C23.8196 73.3159 23.7872 72.78 23.7168 72.1304C23.6518 71.4863 23.4516 70.8638 23.1322 70.2738C22.8074 69.6838 22.3203 69.175 21.6599 68.7528C20.9995 68.3305 20.0955 68.1194 18.9318 68.1194C17.952 68.1194 17.0805 68.2981 16.3227 68.6553C15.5649 69.0126 14.9153 69.5106 14.3795 70.1439C13.8436 70.7772 13.4376 71.5404 13.1561 72.4173C12.8747 73.2996 12.7393 74.2631 12.7393 75.3133V84.6127H11.4673V60.7253H12.7393H12.7447Z" fill="white"/>
  <path d="M29.3028 76.1848V76.385C29.3028 77.3864 29.4382 78.3499 29.7034 79.2647C29.9741 80.1795 30.3692 80.9806 30.8943 81.6735C31.4193 82.3664 32.0797 82.9131 32.8754 83.3136C33.6711 83.7142 34.5913 83.9145 35.6414 83.9145C37.3627 83.9145 38.7268 83.4652 39.7336 82.5612C40.7404 81.6573 41.4333 80.4015 41.8122 78.7992H43.0842C42.7053 80.8074 41.8826 82.3447 40.6268 83.4165C39.3655 84.4882 37.6983 85.0241 35.6252 85.0241C34.3531 85.0241 33.2435 84.7968 32.2962 84.3367C31.3489 83.882 30.5587 83.2541 29.9199 82.4638C29.2866 81.6735 28.8103 80.7371 28.4963 79.6545C28.1824 78.5719 28.0254 77.4081 28.0254 76.1577C28.0254 74.9073 28.1878 73.7976 28.5126 72.6934C28.8373 71.5892 29.3191 70.6202 29.9686 69.7812C30.6128 68.9422 31.4247 68.2764 32.3936 67.773C33.3626 67.2696 34.5047 67.0206 35.8255 67.0206C37.0325 67.0206 38.0935 67.2426 39.0191 67.6918C39.9447 68.1357 40.7188 68.7474 41.3467 69.516C41.9692 70.2846 42.4455 71.1778 42.7703 72.19C43.0951 73.2076 43.2574 74.2902 43.2574 75.454C43.2574 75.5677 43.252 75.6922 43.2412 75.8383C43.2304 75.9845 43.225 76.1036 43.225 76.1902H29.3083L29.3028 76.1848ZM41.9475 75.0805C41.9042 74.1441 41.7472 73.2564 41.4766 72.4228C41.2059 71.5837 40.8108 70.8476 40.2857 70.2143C39.7607 69.581 39.1219 69.0721 38.375 68.6932C37.628 68.3143 36.7727 68.1249 35.8092 68.1249C34.7808 68.1249 33.8768 68.3197 33.0919 68.7095C32.307 69.0992 31.6521 69.6134 31.1108 70.2468C30.5749 70.8801 30.1581 71.6216 29.8712 72.4715C29.5789 73.3213 29.4003 74.1874 29.3353 75.0805H41.9475Z" fill="white"/>
  <path d="M44.5948 67.3183H47.4745V62.1327H51.2906V67.3183H54.7387V70.1601H51.2906V79.3946C51.2906 79.7952 51.3069 80.1416 51.3394 80.4339C51.3718 80.7262 51.453 80.9698 51.5721 81.1701C51.6912 81.3703 51.8806 81.5219 52.1242 81.6193C52.3678 81.7168 52.7034 81.7709 53.1256 81.7709C53.3909 81.7709 53.6615 81.7655 53.9267 81.7547C54.192 81.7438 54.4626 81.7059 54.7279 81.6356V84.5802C54.3056 84.6235 53.8889 84.6668 53.4883 84.7155C53.0877 84.7588 52.6764 84.7805 52.2487 84.7805C51.2473 84.7805 50.4354 84.6831 49.8237 84.4936C49.2121 84.3042 48.7303 84.0227 48.3839 83.6546C48.0375 83.2865 47.8047 82.8264 47.6802 82.2689C47.5557 81.7113 47.4853 81.078 47.4637 80.3635V70.1601H44.584V67.3183H44.5948Z" fill="white"/>
  <path d="M57.4722 67.3183H61.0501V70.6635H61.1151C61.2288 70.198 61.4453 69.7379 61.7701 69.2941C62.0948 68.8502 62.4846 68.4388 62.9393 68.0707C63.3939 67.7027 63.9028 67.4049 64.4603 67.183C65.0178 66.9611 65.5862 66.8474 66.1654 66.8474C66.6092 66.8474 66.9178 66.8582 67.0856 66.8799C67.2534 66.9015 67.4266 66.9232 67.6052 66.9448V70.6257C67.34 70.5823 67.0639 70.5445 66.7879 70.5066C66.5064 70.4741 66.2357 70.4579 65.9705 70.4579C65.321 70.4579 64.7147 70.5878 64.1463 70.8422C63.578 71.0966 63.08 71.4755 62.6578 71.9789C62.2356 72.4823 61.9 73.0994 61.6564 73.8355C61.4128 74.5717 61.2883 75.4215 61.2883 76.3796V84.6073H57.4722V67.3129V67.3183Z" fill="white"/>
  <path d="M69.3491 67.3184H73.1653V84.6128H69.3491V67.3184Z" fill="white"/>
  <path d="M77.4141 67.3183H81.0245V69.6621H81.0895C81.6254 68.6608 82.3724 67.9408 83.3305 67.5024C84.2886 67.0693 85.3278 66.8474 86.4429 66.8474C87.8016 66.8474 88.9924 67.0856 90.0046 67.5673C91.0169 68.0491 91.8613 68.7041 92.5325 69.5431C93.2037 70.3821 93.7017 71.3564 94.0373 72.4715C94.3729 73.5865 94.5407 74.7774 94.5407 76.0494C94.5407 77.2078 94.3891 78.3337 94.0914 79.4271C93.7883 80.5205 93.3336 81.484 92.7219 82.3231C92.1103 83.1621 91.3362 83.8279 90.3944 84.3313C89.4579 84.8347 88.3537 85.0837 87.0816 85.0837C86.5241 85.0837 85.9666 85.0349 85.409 84.9321C84.8515 84.8292 84.3156 84.6669 83.8014 84.4449C83.2872 84.223 82.8162 83.9361 82.3778 83.5897C81.9448 83.2433 81.5821 82.8373 81.2898 82.3664H81.2248V91H77.4087V67.3129L77.4141 67.3183ZM90.73 75.9845C90.73 75.205 90.6271 74.4472 90.4269 73.711C90.2266 72.9749 89.9234 72.3199 89.5229 71.7515C89.1223 71.1832 88.6189 70.7231 88.0181 70.3821C87.4172 70.0411 86.7244 69.8624 85.9449 69.8624C84.3373 69.8624 83.1302 70.42 82.3128 71.535C81.5009 72.6501 81.0895 74.1332 81.0895 75.9845C81.0895 76.856 81.1923 77.6625 81.4089 78.4095C81.62 79.1565 81.9393 79.8006 82.3615 80.3311C82.7838 80.867 83.2926 81.2892 83.8826 81.6031C84.4726 81.9171 85.16 82.0686 85.9395 82.0686C86.811 82.0686 87.5472 81.89 88.148 81.5328C88.7488 81.1755 89.2468 80.7154 89.6366 80.1416C90.0263 79.5679 90.3078 78.9237 90.4756 78.2038C90.6434 77.4785 90.7246 76.7369 90.7246 75.9791L90.73 75.9845Z" fill="white"/>
  <path d="M110.568 72.7366C110.503 71.9788 110.308 71.3076 109.983 70.7284C109.659 70.1492 109.242 69.6675 108.728 69.2886C108.213 68.9097 107.618 68.6174 106.936 68.4171C106.254 68.2168 105.523 68.114 104.744 68.114C103.672 68.114 102.725 68.3305 101.902 68.7635C101.079 69.1966 100.386 69.7812 99.8286 70.5011C99.2711 71.2264 98.8489 72.0492 98.5566 72.9748C98.2643 73.9004 98.1236 74.8531 98.1236 75.8328C98.1236 76.9912 98.2589 78.063 98.5241 79.0427C98.7948 80.0225 99.2062 80.8777 99.7637 81.6031C100.321 82.3284 101.014 82.8913 101.837 83.2919C102.66 83.6925 103.634 83.8927 104.749 83.8927C105.55 83.8927 106.292 83.7574 106.974 83.4922C107.656 83.2269 108.257 82.8589 108.782 82.3879C109.307 81.917 109.734 81.3541 110.07 80.6991C110.406 80.0441 110.627 79.3242 110.741 78.5393H112.013C111.878 79.5678 111.602 80.4772 111.174 81.2837C110.752 82.0848 110.216 82.7614 109.567 83.3081C108.917 83.8548 108.181 84.2716 107.358 84.5639C106.535 84.8562 105.664 84.997 104.749 84.997C103.342 84.997 102.145 84.748 101.155 84.2446C100.164 83.7412 99.3469 83.07 98.7136 82.2201C98.0803 81.3703 97.6093 80.396 97.3062 79.2917C97.0031 78.1875 96.8569 77.0345 96.8569 75.8274C96.8569 74.6203 97.0301 73.4836 97.3766 72.4173C97.723 71.3455 98.2318 70.4091 98.8976 69.6079C99.5688 68.8068 100.392 68.1681 101.371 67.7026C102.351 67.2371 103.477 66.9989 104.749 66.9989C105.685 66.9989 106.562 67.118 107.374 67.3507C108.186 67.5835 108.912 67.9353 109.55 68.4063C110.184 68.8718 110.703 69.4726 111.104 70.198C111.504 70.9233 111.748 71.7623 111.84 72.7258H110.568V72.7366Z" fill="white"/>
  <path d="M114.179 76.0169C114.179 74.7881 114.352 73.6352 114.698 72.5526C115.045 71.47 115.554 70.5173 116.219 69.6945C116.891 68.8718 117.713 68.2168 118.693 67.7351C119.673 67.2533 120.799 67.0151 122.071 67.0151C123.343 67.0151 124.469 67.2533 125.448 67.7351C126.428 68.2168 127.256 68.8664 127.922 69.6945C128.593 70.5173 129.097 71.4754 129.443 72.5526C129.79 73.6352 129.963 74.7881 129.963 76.0169C129.963 77.2456 129.79 78.404 129.443 79.4974C129.097 80.5908 128.588 81.5435 127.922 82.3555C127.251 83.1674 126.428 83.817 125.448 84.2933C124.469 84.775 123.343 85.0132 122.071 85.0132C120.799 85.0132 119.673 84.775 118.693 84.2933C117.713 83.817 116.885 83.1674 116.219 82.3555C115.554 81.5435 115.045 80.5854 114.698 79.4974C114.352 78.404 114.179 77.2456 114.179 76.0169ZM115.451 76.0169C115.451 77.0453 115.597 78.0305 115.884 78.9778C116.176 79.925 116.598 80.7695 117.156 81.5056C117.713 82.2418 118.406 82.8264 119.229 83.2594C120.052 83.6925 121.004 83.909 122.071 83.909C123.137 83.909 124.09 83.6925 124.913 83.2594C125.735 82.8264 126.428 82.2418 126.986 81.5056C127.543 80.7695 127.966 79.9304 128.258 78.9778C128.55 78.0305 128.691 77.0453 128.691 76.0169C128.691 74.9884 128.545 74.0033 128.258 73.056C127.966 72.1087 127.543 71.2643 126.986 70.5281C126.428 69.792 125.735 69.2074 124.913 68.7689C124.09 68.3359 123.137 68.1194 122.071 68.1194C121.004 68.1194 120.052 68.3359 119.229 68.7689C118.406 69.202 117.713 69.792 117.156 70.5281C116.598 71.2643 116.176 72.1087 115.884 73.056C115.591 74.0033 115.451 74.9938 115.451 76.0169Z" fill="white"/>
  <path d="M132.983 67.4157H134.255V70.9287H134.32C134.455 70.3928 134.688 69.884 135.024 69.4077C135.359 68.9259 135.765 68.5091 136.247 68.1519C136.729 67.7946 137.259 67.5185 137.855 67.3183C138.445 67.118 139.067 67.0151 139.711 67.0151C140.534 67.0151 141.248 67.1234 141.855 67.3345C142.456 67.5456 142.97 67.8271 143.392 68.1735C143.814 68.5199 144.15 68.9097 144.399 69.3427C144.642 69.7757 144.81 70.2196 144.902 70.6635H144.967C145.481 69.4618 146.169 68.5524 147.024 67.9353C147.885 67.3237 149.016 67.0151 150.418 67.0151C151.198 67.0151 151.917 67.1342 152.578 67.367C153.238 67.5997 153.807 67.957 154.283 68.4387C154.759 68.9205 155.138 69.5267 155.403 70.2629C155.669 70.9991 155.804 71.8706 155.804 72.872V84.6127H154.532V72.8341C154.532 71.7406 154.364 70.88 154.028 70.2575C153.693 69.635 153.298 69.1587 152.843 68.8339C152.383 68.5091 151.928 68.3088 151.474 68.2331C151.013 68.1573 150.667 68.114 150.418 68.114C149.639 68.114 148.919 68.2493 148.258 68.5145C147.598 68.7798 147.03 69.1857 146.553 69.7216C146.077 70.2575 145.698 70.9233 145.433 71.7136C145.167 72.5039 145.032 73.4132 145.032 74.4417V84.6127H143.76V72.8341C143.76 71.7623 143.598 70.9125 143.273 70.2737C142.948 69.6404 142.569 69.1641 142.136 68.8501C141.703 68.5362 141.254 68.3359 140.799 68.2493C140.339 68.1627 139.982 68.114 139.711 68.114C139.11 68.114 138.482 68.2385 137.838 68.482C137.189 68.7256 136.599 69.1045 136.063 69.6188C135.527 70.133 135.094 70.788 134.758 71.5945C134.423 72.401 134.255 73.3483 134.255 74.4363V84.6072H132.983V67.4103V67.4157Z" fill="white"/>
  <path d="M161.119 71.3672H161.184C161.32 70.9449 161.542 70.474 161.856 69.9598C162.17 69.4456 162.581 68.9746 163.095 68.5362C163.609 68.1031 164.232 67.7405 164.957 67.4482C165.683 67.1559 166.516 67.0151 167.458 67.0151C168.779 67.0151 169.921 67.2587 170.895 67.7513C171.87 68.2439 172.671 68.8988 173.309 69.727C173.948 70.5498 174.419 71.5133 174.733 72.6067C175.047 73.7001 175.204 74.8477 175.204 76.0548C175.204 77.3701 175.047 78.5772 174.733 79.6652C174.419 80.7586 173.943 81.7005 173.309 82.4908C172.671 83.2811 171.87 83.9036 170.895 84.3474C169.921 84.7913 168.779 85.0186 167.458 85.0186C166.029 85.0186 164.751 84.7047 163.636 84.0822C162.521 83.4597 161.704 82.4421 161.19 81.0401H161.125V90.778H159.885V67.4265H161.125V71.3726L161.119 71.3672ZM167.458 83.9144C168.573 83.9144 169.542 83.7033 170.359 83.2811C171.177 82.8589 171.848 82.2905 172.373 81.576C172.898 80.8615 173.288 80.0333 173.548 79.086C173.807 78.1388 173.932 77.1265 173.932 76.0602C173.932 75.0804 173.807 74.1169 173.564 73.1643C173.32 72.217 172.936 71.3672 172.422 70.6202C171.907 69.8732 171.242 69.2723 170.424 68.8122C169.607 68.3575 168.616 68.1248 167.458 68.1248C166.3 68.1248 165.342 68.3467 164.54 68.796C163.734 69.2399 163.079 69.8353 162.581 70.5714C162.078 71.3076 161.715 72.152 161.493 73.0993C161.271 74.0466 161.157 75.0317 161.157 76.0602C161.157 77.0886 161.26 78.0738 161.46 79.0211C161.661 79.9683 162.002 80.8073 162.483 81.5327C162.965 82.258 163.615 82.8372 164.427 83.2702C165.244 83.7033 166.256 83.9198 167.463 83.9198L167.458 83.9144Z" fill="white"/>
  <path d="M189.592 81.2025H189.527C189.326 81.7167 189.034 82.1985 188.655 82.6586C188.276 83.1187 187.811 83.5246 187.264 83.8819C186.717 84.2392 186.1 84.5152 185.407 84.7209C184.714 84.9212 183.957 85.024 183.134 85.024C181.304 85.024 179.886 84.6289 178.885 83.8386C177.883 83.0483 177.38 81.825 177.38 80.174C177.38 79.1726 177.58 78.3499 177.981 77.7165C178.381 77.0832 178.89 76.5798 179.502 76.2117C180.113 75.8437 180.795 75.5838 181.542 75.4269C182.289 75.2699 183.009 75.1616 183.702 75.0913L185.678 74.9235C186.593 74.8585 187.313 74.7502 187.838 74.6041C188.363 74.4579 188.758 74.2577 189.023 74.0033C189.288 73.7489 189.456 73.4187 189.527 73.0181C189.592 72.6175 189.629 72.1141 189.629 71.5133C189.629 71.0424 189.537 70.6093 189.359 70.2088C189.18 69.8082 188.899 69.451 188.525 69.137C188.146 68.8231 187.654 68.5795 187.053 68.4008C186.452 68.2222 185.716 68.1356 184.844 68.1356C183.307 68.1356 182.062 68.5145 181.115 69.2723C180.168 70.0301 179.648 71.1777 179.561 72.7204H178.289C178.376 70.8259 178.988 69.4022 180.113 68.455C181.239 67.5077 182.842 67.0314 184.915 67.0314C186.988 67.0314 188.498 67.4373 189.451 68.2547C190.398 69.0666 190.874 70.133 190.874 71.4483V81.4515C190.874 81.6951 190.874 81.9441 190.891 82.1877C190.901 82.4312 190.939 82.6586 191.01 82.8589C191.075 83.0591 191.188 83.2215 191.345 83.346C191.502 83.4705 191.724 83.5301 192.017 83.5301C192.238 83.5301 192.552 83.4976 192.953 83.4272V84.499C192.617 84.591 192.271 84.6343 191.914 84.6343C191.399 84.6343 190.993 84.5693 190.69 84.434C190.387 84.2987 190.16 84.1201 190.003 83.8981C189.846 83.6762 189.743 83.411 189.684 83.1133C189.629 82.8101 189.602 82.4854 189.602 82.1281V81.2241L189.592 81.2025ZM189.592 74.8477C189.278 75.2266 188.807 75.481 188.168 75.6163C187.535 75.7516 186.825 75.8491 186.041 75.9194L183.897 76.1197C183.275 76.1847 182.647 76.2821 182.024 76.4066C181.402 76.5311 180.839 76.7368 180.335 77.0237C179.832 77.316 179.426 77.7111 179.112 78.2091C178.798 78.7125 178.641 79.3621 178.641 80.1686C178.641 81.4407 179.042 82.3825 179.848 82.9942C180.649 83.6058 181.754 83.9144 183.161 83.9144C184.568 83.9144 185.759 83.6546 186.609 83.1295C187.459 82.6044 188.103 82.0036 188.552 81.3216C188.996 80.6395 189.283 79.9846 189.407 79.3458C189.532 78.7125 189.592 78.2795 189.592 78.0576V74.8477Z" fill="white"/>
  <path d="M194.907 67.4157H196.179V71.0965H196.244C196.466 70.4523 196.786 69.8731 197.197 69.3751C197.608 68.8717 198.09 68.4441 198.637 68.0869C199.183 67.7296 199.779 67.4644 200.428 67.2857C201.073 67.1071 201.733 67.0205 202.404 67.0205C203.406 67.0205 204.261 67.145 204.964 67.3886C205.668 67.6322 206.242 67.9569 206.686 68.3575C207.13 68.7581 207.482 69.2128 207.741 69.7107C207.996 70.2142 208.18 70.7176 208.293 71.2318C208.407 71.746 208.472 72.2386 208.494 72.7203C208.515 73.2021 208.526 73.6189 208.526 73.9762V84.6126H207.254V73.738C207.254 73.3158 207.222 72.7799 207.157 72.1303C207.086 71.4862 206.892 70.8637 206.572 70.2737C206.247 69.6837 205.755 69.1749 205.1 68.7527C204.439 68.3304 203.535 68.1193 202.372 68.1193C201.392 68.1193 200.52 68.298 199.763 68.6552C199.005 69.0125 198.355 69.5105 197.819 70.1438C197.284 70.7771 196.878 71.5403 196.596 72.4172C196.315 73.2995 196.179 74.263 196.179 75.3132V84.6126H194.907V67.4157Z" fill="white"/>
  <path d="M210.198 67.4158H211.703L218.096 83.1079L223.985 67.4158H225.425L218.063 86.4531C217.706 87.303 217.376 88.0283 217.078 88.6454C216.775 89.257 216.439 89.7117 216.06 89.9986C215.617 90.3559 215.086 90.5724 214.469 90.6482C213.857 90.724 213.045 90.7673 212.044 90.7673V89.663C212.959 89.663 213.673 89.5926 214.188 89.4465C214.702 89.3003 215.178 89.008 215.627 88.5588C215.871 88.3152 216.131 87.8605 216.396 87.2055C216.661 86.5452 216.997 85.652 217.397 84.5099L210.204 67.4158H210.198Z" fill="white"/>
  <path d="M77.4508 52.6949C79.371 52.2681 80.5816 50.3655 80.1547 48.4453C79.7279 46.5251 77.8252 45.3145 75.905 45.7413C73.9848 46.1681 72.7742 48.0708 73.2011 49.991C73.6279 51.9112 75.5306 53.1218 77.4508 52.6949Z" fill="white"/>
  <path d="M72.5678 60.2747C74.104 59.9332 75.0725 58.4111 74.731 56.875C74.3895 55.3388 72.8674 54.3703 71.3313 54.7118C69.7951 55.0533 68.8266 56.5754 69.1681 58.1115C69.5096 59.6477 71.0317 60.6162 72.5678 60.2747Z" fill="white"/>
  <path d="M66.2395 61.0246C67.0076 60.8538 67.4918 60.0928 67.3211 59.3247C67.1503 58.5566 66.3893 58.0724 65.6212 58.2431C64.8531 58.4138 64.3689 59.1749 64.5396 59.943C64.7104 60.7111 65.4714 61.1953 66.2395 61.0246Z" fill="white"/>
  <path d="M78.5231 43.584C77.9033 44.1144 76.9475 43.6577 76.9286 42.849C76.8863 40.7624 76.4817 36.7711 74.3224 32.7717C74.3224 32.7717 71.4491 27.4821 67.61 26.7815C67.61 26.7815 54.4568 24.2083 57.656 12.647C57.6618 12.6235 57.6677 12.6001 57.6748 12.5819C57.8478 12.0624 60.0441 6.07162 68.3679 5.21122C68.5735 5.18765 68.7867 5.17344 69.0051 5.15806C77.7845 4.55033 81.5521 10.9684 82.581 13.9251C82.5969 13.9713 82.618 14.0164 82.6338 14.0627C82.9122 14.9907 85.8948 25.1889 83.5482 32.85C83.5482 32.85 81.5426 41.0215 78.5255 43.5945L78.5231 43.584Z" fill="white"/>
  <path d="M76.6588 58.0099C76.1662 57.745 76.2734 57.0566 76.821 56.8664C78.2335 56.3784 80.8617 55.2457 83.1272 53.0281C83.1272 53.0281 86.1165 50.0854 85.7751 47.5613C85.7751 47.5613 84.7249 38.8821 93.2791 38.2885C93.2957 38.2848 93.3133 38.2862 93.331 38.2875C93.7224 38.2796 98.2685 38.308 100.627 43.2473C100.684 43.3718 100.746 43.4951 100.798 43.6259C103.082 48.9036 99.5135 52.65 97.7184 53.9403C97.6887 53.9628 97.6644 53.984 97.6402 54.0052C97.0656 54.386 90.759 58.4828 85.0425 58.7304C85.0425 58.7304 79.0512 59.3028 76.6599 58.0149L76.6588 58.0099Z" fill="white"/>
  <path d="M64.5629 56.9196C64.903 57.078 65.2922 56.7853 65.22 56.4337C65.032 55.5342 64.8149 53.7777 65.4043 51.8308C65.4043 51.8308 66.1932 49.249 67.8825 48.5393C67.8825 48.5393 73.6652 46.0229 71.0309 41.4058C71.0286 41.3952 71.0205 41.3859 71.0125 41.3765C70.8775 41.1726 69.2709 38.8393 65.3587 39.3636C65.2595 39.3745 65.1615 39.3907 65.0634 39.4069C60.9709 40.0883 59.8861 43.2482 59.7091 44.63C59.7081 44.6525 59.7003 44.6709 59.6993 44.6934C59.6636 45.1247 59.3203 49.8187 61.1716 52.8496C61.1716 52.8496 62.9141 56.1442 64.5572 56.9209L64.5629 56.9196Z" fill="white"/>
</svg>
