<svg xmlns="http://www.w3.org/2000/svg" width="59" height="30" viewBox="0 0 59 30" fill="none">
<path d="M8.74487 25.8556C9.79483 25.8556 10.646 25.0044 10.646 23.9545C10.646 22.9045 9.79483 22.0533 8.74487 22.0533C7.69491 22.0533 6.84375 22.9045 6.84375 23.9545C6.84375 25.0044 7.69491 25.8556 8.74487 25.8556Z" fill="white"/>
<path d="M5.32266 29.2395C6.16263 29.2395 6.84355 28.5586 6.84355 27.7187C6.84355 26.8787 6.16263 26.1978 5.32266 26.1978C4.48269 26.1978 3.80176 26.8787 3.80176 27.7187C3.80176 28.5586 4.48269 29.2395 5.32266 29.2395Z" fill="white"/>
<path d="M1.93916 28.8968C2.35914 28.8968 2.69961 28.5563 2.69961 28.1363C2.69961 27.7163 2.35914 27.3759 1.93916 27.3759C1.51918 27.3759 1.17871 27.7163 1.17871 28.1363C1.17871 28.5563 1.51918 28.8968 1.93916 28.8968Z" fill="white"/>
<path d="M10.3596 21.2324C9.97516 21.437 9.53004 21.0883 9.61386 20.6647C9.83353 19.5726 10.085 17.4461 9.42309 15.1121C9.42309 15.1121 8.53862 12.0231 6.61939 11.2134C6.61939 11.2134 0.0639329 8.34916 3.06996 2.69565C3.07574 2.68412 3.08153 2.6726 3.08731 2.66395C3.23761 2.41326 5.07591 -0.453837 9.5127 0.0619529C9.62253 0.0734789 9.73526 0.0907679 9.85087 0.108057C14.4958 0.808263 15.7155 4.5888 15.9092 6.24854C15.9121 6.27448 15.9179 6.30041 15.9207 6.32634C15.9583 6.84213 16.3312 12.5014 14.2212 16.2214C14.2212 16.2214 12.2297 20.2469 10.3596 21.2381V21.2324Z" fill="white"/>
<path d="M7.71708 28.533C7.49108 28.3379 7.62668 27.9917 7.93404 27.9559C8.72653 27.8653 10.2272 27.5795 11.6645 26.6864C11.6645 26.6864 13.5629 25.4993 13.6774 24.1446C13.6774 24.1446 14.1354 19.5007 18.6614 20.1822C18.6704 20.1822 18.6794 20.1849 18.6885 20.1877C18.8934 20.2289 21.2588 20.7702 21.9157 23.617C21.9308 23.6885 21.9489 23.7599 21.9609 23.8341C22.5395 26.8485 20.2463 28.3874 19.1616 28.8518C19.1435 28.86 19.1284 28.8682 19.1133 28.8765C18.7698 29.0084 15.0092 30.4126 12.002 29.8795C12.002 29.8795 8.81392 29.4838 7.71708 28.5358V28.533Z" fill="white"/>
<path d="M1.54092 26.564C1.69976 26.6859 1.93647 26.5785 1.93958 26.3869C1.94581 25.8964 2.03613 24.9561 2.56872 24.0099C2.56872 24.0099 3.27884 22.7561 4.24123 22.5819C4.24123 22.5819 7.54577 21.9405 6.70796 19.2297C6.70796 19.2239 6.70484 19.2181 6.70173 19.2123C6.65501 19.0904 6.08816 17.6885 3.98895 17.5086C3.93601 17.5028 3.88306 17.4999 3.83011 17.497C1.61878 17.378 0.687532 18.8988 0.435254 19.5983C0.432139 19.6099 0.425912 19.6186 0.422798 19.6302C0.354277 19.8508 -0.368298 22.2569 0.245268 24.0505C0.245268 24.0505 0.771625 25.969 1.5378 26.564H1.54092Z" fill="white"/>
<path d="M27.0068 13.1224H28.8159V9.86462H31.2134V13.1224H33.3795V14.9077H31.2134V20.7092C31.2134 20.9608 31.2236 21.1784 31.244 21.3621C31.2644 21.5457 31.3154 21.6987 31.3902 21.8246C31.465 21.9504 31.584 22.0456 31.737 22.1068C31.8901 22.168 32.1009 22.202 32.3662 22.202C32.5328 22.202 32.7028 22.1986 32.8695 22.1918C33.0361 22.185 33.2061 22.1612 33.3727 22.117V23.9669C33.1075 23.9942 32.8456 24.0214 32.594 24.052C32.3424 24.0792 32.0839 24.0928 31.8153 24.0928C31.1861 24.0928 30.6761 24.0316 30.2918 23.9125C29.9075 23.7935 29.6049 23.6167 29.3872 23.3854C29.1696 23.1542 29.0234 22.8651 28.9451 22.5149C28.8669 22.1646 28.8227 21.7667 28.8091 21.3179V14.9077H27V13.1224H27.0068Z" fill="white"/>
<path d="M35.0967 13.1224H37.3445V15.224H37.3853C37.4567 14.9315 37.5927 14.6425 37.7968 14.3636C38.0008 14.0848 38.2456 13.8263 38.5313 13.5951C38.8169 13.3638 39.1366 13.1768 39.4869 13.0374C39.8371 12.8979 40.1942 12.8265 40.5581 12.8265C40.8369 12.8265 41.0307 12.8333 41.1362 12.8469C41.2416 12.8605 41.3504 12.8741 41.4626 12.8877V15.2002C41.296 15.173 41.1226 15.1492 40.9491 15.1253C40.7723 15.1049 40.6023 15.0947 40.4356 15.0947C40.0276 15.0947 39.6467 15.1764 39.2896 15.3362C38.9326 15.496 38.6197 15.7341 38.3545 16.0503C38.0892 16.3666 37.8784 16.7542 37.7254 17.2167C37.5723 17.6792 37.4941 18.2131 37.4941 18.815V23.9839H35.0967V13.119V13.1224Z" fill="white"/>
<path d="M42.5576 13.1224H44.955V23.9874H42.5576V13.1224Z" fill="white"/>
<path d="M47.6245 13.1224H49.8927V14.5949H49.9335C50.2702 13.9657 50.7395 13.5135 51.3414 13.238C51.9433 12.966 52.5962 12.8265 53.2967 12.8265C54.1503 12.8265 54.8984 12.9762 55.5343 13.2788C56.1702 13.5815 56.7007 13.9929 57.1224 14.52C57.5441 15.0471 57.8569 15.6592 58.0678 16.3598C58.2786 17.0603 58.384 17.8084 58.384 18.6076C58.384 19.3353 58.2888 20.0426 58.1018 20.7296C57.9113 21.4165 57.6257 22.0218 57.2414 22.5489C56.8571 23.076 56.3709 23.4942 55.7792 23.8105C55.1908 24.1268 54.4971 24.2832 53.698 24.2832C53.3477 24.2832 52.9975 24.2526 52.6472 24.188C52.2969 24.1234 51.9603 24.0213 51.6372 23.8819C51.3142 23.7425 51.0183 23.5623 50.7429 23.3446C50.4708 23.127 50.243 22.8719 50.0593 22.5761H50.0185V28.0001H47.6211V13.119L47.6245 13.1224ZM55.99 18.5668C55.99 18.0771 55.9254 17.601 55.7996 17.1385C55.6737 16.676 55.4833 16.2646 55.2317 15.9075C54.98 15.5504 54.6638 15.2614 54.2863 15.0471C53.9088 14.8329 53.4735 14.7207 52.9839 14.7207C51.9739 14.7207 51.2155 15.0709 50.702 15.7715C50.192 16.472 49.9335 17.4038 49.9335 18.5668C49.9335 19.1143 49.9981 19.621 50.1341 20.0902C50.2668 20.5595 50.4674 20.9642 50.7326 21.2975C50.9979 21.6341 51.3176 21.8994 51.6882 22.0966C52.0589 22.2938 52.4908 22.389 52.9805 22.389C53.5279 22.389 53.9904 22.2768 54.3679 22.0524C54.7454 21.8279 55.0582 21.5389 55.3031 21.1784C55.5479 20.818 55.7247 20.4133 55.8302 19.961C55.9356 19.5053 55.9866 19.0394 55.9866 18.5634L55.99 18.5668Z" fill="white"/>
<path d="M43.8605 11.594C44.5768 11.594 45.1575 11.0133 45.1575 10.297C45.1575 9.58068 44.5768 9 43.8605 9C43.1442 9 42.5635 9.58068 42.5635 10.297C42.5635 11.0133 43.1442 11.594 43.8605 11.594Z" fill="white"/>
</svg>
