<svg width="205" height="52" viewBox="0 0 205 52" fill="none" xmlns="http://www.w3.org/2000/svg">
<path d="M150.634 26.0381C150.658 26.127 150.678 26.2125 150.709 26.2945C150.939 26.8963 151.165 27.4982 151.312 28.1273C151.364 28.3496 151.418 28.5685 151.48 28.7873C151.675 29.4917 151.888 30.1927 152.073 30.9005C152.279 31.6836 152.498 32.4564 152.775 33.2155C153.043 33.9472 153.385 34.6243 153.958 35.1714C154.293 35.4928 154.591 35.8587 154.92 36.1904C155.232 36.505 155.503 36.8538 155.777 37.1991C156.007 37.4864 156.041 37.8009 155.959 38.1258C155.904 38.3412 155.804 38.5532 155.691 38.7481C155.544 38.9977 155.362 39.2234 155.201 39.4662C154.989 39.7808 154.776 40.092 154.578 40.4134C154.31 40.8408 154.012 41.258 153.896 41.7572C153.677 42.6942 153.553 43.6448 153.478 44.6022C153.423 45.269 153.375 45.9358 153.3 46.5992C153.207 47.4267 153.097 48.2508 152.882 49.0578C152.762 49.5091 152.673 49.9673 152.46 50.3879C152.412 50.4871 152.344 50.5897 152.416 50.723C152.607 50.8222 152.827 50.7948 153.032 50.7538C153.33 50.6957 153.622 50.617 153.93 50.617C154.002 50.617 154.081 50.5897 154.149 50.5623C154.43 50.4495 154.708 50.3264 154.989 50.2169C155.116 50.1656 155.249 50.1109 155.383 50.0973C155.585 50.0767 155.736 49.9878 155.88 49.8545C156.082 49.6664 156.281 49.4544 156.524 49.3347C156.887 49.1535 157.038 48.791 157.315 48.538C157.507 48.3636 157.627 48.114 157.792 47.9088C157.946 47.7207 158.038 47.5019 158.148 47.2899C158.251 47.0882 158.405 46.9103 158.491 46.7018C158.758 46.035 159.173 45.4331 159.341 44.7253C159.347 44.6877 159.375 44.6569 159.388 44.6227C159.567 44.1782 159.735 43.7303 159.926 43.2892C160.084 42.9267 160.204 42.5574 160.286 42.1744C160.303 42.1026 160.327 42.0274 160.365 41.9624C160.673 41.4119 160.79 40.7759 161.119 40.2322C161.379 39.8013 161.626 39.3636 161.886 38.9328C161.945 38.837 162.023 38.7516 162.095 38.6626C162.232 38.4951 162.407 38.4164 162.63 38.4335C162.959 38.4575 163.284 38.4746 163.613 38.4917C164.258 38.5259 164.902 38.5635 165.542 38.584C166.036 38.5977 166.529 38.5908 167.023 38.584C167.441 38.584 167.859 38.5806 168.273 38.5635C168.65 38.5498 169.031 38.5259 169.408 38.5019C169.723 38.4814 170.038 38.4506 170.35 38.4233C170.562 38.4028 170.778 38.3823 170.991 38.3583C171.457 38.307 171.919 38.2592 172.382 38.2044C172.443 38.1976 172.512 38.1908 172.567 38.16C172.748 38.0574 172.94 38.0506 173.142 38.03C173.91 37.9514 174.667 37.8009 175.414 37.5992C175.853 37.4795 176.298 37.4009 176.723 37.2333C177.169 37.0623 177.641 36.9563 178.101 36.8093C178.474 36.6896 178.844 36.5665 179.207 36.4263C179.677 36.2417 180.146 36.0536 180.595 35.8245C180.852 35.6912 181.119 35.5749 181.393 35.486C181.565 35.4313 181.719 35.3526 181.87 35.2637C182.075 35.144 182.284 35.0209 182.497 34.9115C182.778 34.7679 183.069 34.6448 183.347 34.4909C183.61 34.3439 183.861 34.1729 184.124 34.019C184.265 33.937 184.429 33.8857 184.556 33.7865C184.995 33.4446 185.515 33.2326 185.951 32.8769C186.235 32.6478 186.554 32.4598 186.866 32.2717C187.167 32.0905 187.417 31.8409 187.715 31.6494C188.195 31.3485 188.654 31.0134 189.065 30.6133C189.261 30.4218 189.507 30.2816 189.734 30.1209C189.805 30.0696 189.898 30.0422 189.956 29.9807C190.193 29.7174 190.535 29.5703 190.737 29.266C190.765 29.225 190.816 29.2045 190.854 29.1703C191.029 29.0267 191.207 28.883 191.382 28.7428C191.419 28.7155 191.464 28.695 191.526 28.6608C191.543 28.7326 191.563 28.777 191.563 28.8249C191.563 29.0403 191.57 29.2558 191.563 29.4678C191.529 30.3397 191.358 31.1946 191.176 32.046C190.994 32.8838 190.799 33.7215 190.645 34.5662C190.549 35.0859 190.508 35.6159 190.57 36.1459C190.583 36.2656 190.57 36.4024 190.683 36.4947C190.72 36.4947 190.758 36.505 190.792 36.4981C191.532 36.3614 192.146 35.9544 192.78 35.5886C192.811 35.5715 192.838 35.5407 192.865 35.5133C193.181 35.2227 193.516 34.9491 193.808 34.638C194.058 34.3747 194.274 34.0738 194.486 33.7763C194.63 33.5711 194.726 33.3317 194.866 33.1231C195.031 32.8804 195.147 32.6171 195.233 32.3367C195.26 32.2409 195.302 32.1486 195.336 32.0529C195.641 31.1809 195.894 30.2987 195.997 29.3754C196.052 28.8728 196.093 28.3701 196.168 27.8743C196.292 27.0502 196.288 26.2159 196.364 25.3849C196.412 24.8584 196.422 24.3283 196.456 23.7983C196.48 23.4324 196.501 23.0666 196.539 22.7041C196.6 22.1638 196.669 21.627 196.751 21.0901C196.854 20.3891 197.005 19.7018 197.289 19.0487C197.453 18.6692 197.587 18.2725 197.731 17.8827C197.793 17.7186 197.827 17.5407 197.906 17.3869C198.142 16.9287 198.389 16.4739 198.646 16.0294C198.865 15.6464 198.999 15.2189 199.304 14.8838C199.338 14.8462 199.352 14.7949 199.372 14.7505C199.691 14.135 199.986 13.5058 200.342 12.9108C200.445 12.7364 200.544 12.562 200.637 12.3808C200.763 12.1346 200.89 11.8884 200.996 11.6354C201.161 11.2387 201.308 10.8352 201.469 10.4386C201.702 9.86752 201.949 9.29989 202.179 8.72542C202.333 8.33903 202.453 7.93895 202.603 7.55256C202.758 7.15248 202.939 6.76266 203.097 6.36601C203.21 6.08561 203.302 5.79838 203.405 5.51457C203.47 5.33676 203.556 5.16578 203.604 4.98455C203.71 4.56054 203.957 4.17415 203.971 3.71936C203.971 3.65097 204.025 3.58258 204.06 3.51419C204.097 3.43555 204.145 3.36032 204.176 3.27825C204.344 2.8303 204.526 2.38578 204.666 1.92757C204.793 1.51724 204.879 1.09665 204.978 0.679475C204.992 0.621344 205.002 0.546117 204.981 0.494825C204.957 0.429856 204.903 0.347789 204.844 0.330692C204.615 0.265722 204.382 0.190495 204.145 0.180236C203.518 0.152881 202.926 0.275981 202.35 0.559794C201.562 0.949611 200.849 1.44201 200.174 1.99596C199.979 2.15667 199.807 2.34132 199.622 2.5123C199.376 2.74824 199.126 2.97734 198.882 3.2167C198.238 3.84246 197.686 4.5537 196.998 5.13501C196.95 5.17604 196.915 5.23075 196.871 5.27521C196.264 5.88387 195.658 6.49253 195.051 7.09777C195.017 7.13196 194.969 7.15932 194.935 7.19351C194.842 7.279 194.75 7.36449 194.664 7.45681C194.37 7.78508 194.092 8.13044 193.78 8.44503C193.054 9.17337 192.43 9.98378 191.789 10.7805C191.063 11.6867 190.405 12.6441 189.812 13.646C189.768 13.7178 189.71 13.7828 189.658 13.8546C189.261 13.7623 188.884 13.6699 188.5 13.5913C187.349 13.3553 186.201 13.1057 185.012 13.1091C184.522 13.1091 184.028 13.0955 183.538 13.1091C182.802 13.1262 182.075 13.222 181.349 13.3143C180.773 13.3861 180.204 13.5229 179.639 13.646C179.355 13.7076 179.074 13.7828 178.8 13.8751C178.382 14.0153 177.97 14.1794 177.552 14.3231C176.857 14.5624 176.178 14.8394 175.534 15.1882C174.9 15.5301 174.273 15.8823 173.65 16.2448C172.885 16.6893 172.149 17.1783 171.443 17.7117C170.85 18.1597 170.271 18.6315 169.709 19.1239C168.88 19.8489 168.082 20.6011 167.314 21.3876C167.276 21.4252 167.252 21.4765 167.184 21.5825C167.3 21.5381 167.345 21.521 167.389 21.5039C167.79 21.3158 168.188 21.1209 168.592 20.9431C169.02 20.755 169.438 20.5533 169.85 20.3276C170.113 20.184 170.394 20.0369 170.686 19.9788C171.224 19.8728 171.638 19.4556 172.197 19.4146C172.245 19.4112 172.286 19.3701 172.33 19.3462C172.567 19.23 172.8 19.0898 173.047 19.0077C173.417 18.8846 173.8 18.8059 174.181 18.7068C174.266 18.6828 174.349 18.6486 174.434 18.6281C174.654 18.57 174.873 18.5119 175.092 18.4606C175.178 18.4401 175.267 18.4435 175.353 18.423C176.041 18.2691 176.73 18.0981 177.446 18.1152C177.535 18.1152 177.624 18.105 177.71 18.0913C178.063 18.0331 178.416 18.04 178.769 18.0776C178.868 18.0879 178.971 18.1015 179.07 18.1118C179.523 18.146 179.978 18.1665 180.431 18.2144C180.732 18.2452 181.034 18.2964 181.328 18.3717C181.647 18.4537 181.955 18.5632 182.264 18.6794C182.449 18.7478 182.486 18.8504 182.425 19.0419C182.391 19.1479 182.349 19.2607 182.281 19.3496C182.02 19.6916 181.774 20.0472 181.476 20.3515C181.133 20.7037 180.746 21.0115 180.372 21.3363C179.879 21.7672 179.327 22.1296 178.858 22.5913C178.632 22.8135 178.416 23.0426 178.19 23.2649C177.648 23.7983 177.182 24.4002 176.737 25.0088C176.254 25.6688 175.795 26.3492 175.335 27.0297C175.003 27.5221 174.691 28.0248 174.366 28.5206C174.116 28.9001 173.869 29.2831 173.608 29.6524C173.283 30.1175 172.954 30.5825 172.601 31.027C172.2 31.5297 171.81 32.0494 171.35 32.494C170.744 33.0787 170.11 33.6497 169.308 33.9814C169.26 34.0019 169.219 34.0293 169.175 34.0532C168.623 34.3883 168.02 34.6243 167.424 34.8705C166.992 35.0483 166.54 35.168 166.087 35.2877C165.049 35.5578 164.004 35.698 162.931 35.6159C162.606 35.592 162.274 35.5407 161.965 35.4415C161.369 35.2535 160.834 34.9423 160.365 34.5217C160.197 34.3712 159.988 34.2447 159.865 34.0635C159.628 33.7079 159.293 33.4172 159.135 33.0103C158.611 32.2614 158.237 31.4339 157.826 30.627C157.62 30.2235 157.442 29.7994 157.192 29.4267C156.939 29.0506 156.678 28.6813 156.414 28.312C156.144 27.9324 155.825 27.5905 155.469 27.2827C154.691 26.6125 153.786 26.2022 152.786 26.0346C152.189 25.9321 151.58 25.9047 150.97 25.9286C150.86 25.9321 150.74 25.9115 150.624 26.0449L150.634 26.0381Z" fill="white"/>
<path d="M150.634 26.0381C150.75 25.9047 150.87 25.9252 150.98 25.9218C151.59 25.9013 152.2 25.9286 152.796 26.0278C153.796 26.1988 154.701 26.6057 155.479 27.2759C155.835 27.5837 156.154 27.9256 156.425 28.3052C156.688 28.6745 156.952 29.0438 157.202 29.4199C157.453 29.7926 157.634 30.2166 157.836 30.6201C158.247 31.4305 158.621 32.258 159.145 33.0035C159.306 33.4104 159.639 33.701 159.875 34.0567C159.998 34.2379 160.204 34.3644 160.375 34.5149C160.872 34.9594 161.441 35.2808 162.078 35.4655C162.315 35.5339 162.561 35.5749 162.808 35.5988C163.925 35.7014 165.015 35.5646 166.098 35.2808C166.55 35.1611 167.002 35.0415 167.434 34.8636C168.044 34.6106 168.664 34.3712 169.229 34.019C169.257 34.0019 169.288 33.9849 169.318 33.9746C170.12 33.6429 170.754 33.0753 171.361 32.4871C171.82 32.0426 172.214 31.5229 172.611 31.0202C172.964 30.5757 173.29 30.1106 173.619 29.6456C173.879 29.2729 174.126 28.8933 174.376 28.5137C174.701 28.0179 175.013 27.5153 175.346 27.0229C175.805 26.3424 176.264 25.6619 176.747 25.002C177.193 24.3899 177.659 23.7915 178.2 23.2581C178.426 23.0358 178.642 22.8067 178.868 22.5844C179.338 22.1228 179.889 21.7603 180.383 21.3295C180.753 21.0046 181.143 20.6969 181.486 20.3447C181.784 20.0369 182.031 19.6847 182.291 19.3428C182.36 19.2539 182.397 19.141 182.435 19.035C182.5 18.847 182.459 18.7444 182.274 18.6726C181.966 18.5563 181.657 18.4469 181.339 18.3648C181.044 18.2896 180.742 18.2383 180.441 18.2075C178.834 18.0366 177.282 17.9887 175.681 18.3443C175.092 18.4743 174.506 18.5871 173.924 18.7478C173.016 19.0009 172.101 19.2847 171.275 19.7326C169.956 20.4473 167.454 21.9689 167.191 21.5689C167.115 21.3774 167.797 20.7379 168.376 20.3379C168.873 19.9925 169.264 19.5138 169.719 19.1137C170.281 18.6213 170.857 18.1528 171.453 17.7015C172.159 17.168 172.896 16.679 173.66 16.2345C174.263 15.8823 174.873 15.5404 175.49 15.2087C176.106 14.877 176.809 14.5727 177.501 14.3367C177.94 14.1863 178.371 14.0153 178.81 13.8683C179.084 13.7759 179.368 13.7007 179.649 13.6392C180.218 13.5195 180.787 13.3827 181.359 13.3075C182.086 13.2152 182.812 13.116 183.549 13.1023C184.042 13.0921 184.532 13.1057 185.022 13.1023C186.211 13.0989 187.359 13.3485 188.51 13.5845C188.891 13.6631 189.271 13.7588 189.668 13.8478C189.723 13.7759 189.781 13.711 189.823 13.6392C190.415 12.6373 191.073 11.6798 191.8 10.7737C192.44 9.97694 193.064 9.16653 193.79 8.43819C194.095 8.13386 194.37 7.80218 194.651 7.47733C194.74 7.37475 194.842 7.28242 194.942 7.1901C194.979 7.1559 195.024 7.13197 195.058 7.09435C195.665 6.48569 196.271 5.88045 196.878 5.27179C196.922 5.22734 196.957 5.17262 197.005 5.13159C197.693 4.55029 198.245 3.83904 198.889 3.21328C199.208 2.90211 199.537 2.6012 199.859 2.29345C200.006 2.15326 200.157 2.01306 200.315 1.88654C200.948 1.37362 201.62 0.922257 202.357 0.556376C202.929 0.272563 203.525 0.149463 204.152 0.176818C204.389 0.187077 204.622 0.262304 204.851 0.327274C204.909 0.344371 204.961 0.426438 204.988 0.491407C205.009 0.546118 204.999 0.617926 204.985 0.676057C204.772 1.56511 204.498 2.42339 204.193 3.28509L203.888 4.18441C203.748 4.63235 203.577 5.07688 203.415 5.51115C203.313 5.79496 203.217 6.0822 203.107 6.36259C202.949 6.75925 202.768 7.14906 202.614 7.54914C202.463 7.93553 202.343 8.33561 202.189 8.72201C201.963 9.29647 201.713 9.8641 201.48 10.4351C201.318 10.8318 201.171 11.2353 201.007 11.632C200.894 11.9021 200.757 12.1654 200.623 12.4287C200.541 12.5928 200.448 12.7535 200.352 12.9108C199.996 13.5058 199.705 14.135 199.382 14.7505C199.359 14.7949 199.345 14.8496 199.314 14.8838C199.009 15.2155 198.875 15.6464 198.656 16.0294C198.399 16.4773 198.152 16.9321 197.916 17.3869C197.837 17.5407 197.803 17.7186 197.741 17.8827C197.597 18.2725 197.467 18.6657 197.299 19.0487C197.015 19.7053 196.864 20.3926 196.761 21.0901C196.682 21.627 196.61 22.1638 196.549 22.7041C196.508 23.0666 196.487 23.4324 196.467 23.7983C196.432 24.3283 196.422 24.8584 196.374 25.385C196.302 26.2022 196.306 27.0263 196.186 27.8401C196.127 28.2402 196.066 28.6368 196.038 29.0403C195.966 30.0833 195.689 31.0749 195.35 32.0529C195.315 32.1486 195.278 32.2409 195.247 32.3367C195.164 32.6171 195.048 32.8769 194.88 33.1231C194.74 33.3317 194.644 33.5711 194.5 33.7763C194.291 34.0738 194.075 34.3747 193.821 34.638C193.506 34.9696 193.146 35.2603 192.81 35.5715C192.804 35.5783 192.8 35.5817 192.793 35.5851C192.159 35.951 191.546 36.3579 190.806 36.4947C190.772 36.5016 190.734 36.4947 190.696 36.4913C190.58 36.3956 190.597 36.2622 190.583 36.1425C190.522 35.6125 190.563 35.0791 190.659 34.5627C190.816 33.7181 191.012 32.8838 191.19 32.0426C191.371 31.1912 191.543 30.3363 191.577 29.4643C191.587 29.2489 191.58 29.0369 191.577 28.8215C191.577 28.777 191.556 28.7292 191.539 28.6574C191.478 28.6916 191.433 28.7086 191.395 28.7394C191.217 28.8796 191.042 29.0267 190.868 29.1669C190.83 29.1976 190.775 29.2216 190.751 29.2626C190.549 29.5669 190.206 29.7105 189.97 29.9773C189.915 30.0388 189.819 30.0696 189.747 30.1175C189.521 30.2782 189.274 30.4184 189.079 30.6099C188.668 31.0099 188.209 31.345 187.729 31.646C187.427 31.834 187.181 32.0836 186.879 32.2683C186.564 32.4564 186.245 32.6444 185.964 32.8735C185.529 33.2257 185.008 33.4412 184.57 33.7831C184.443 33.8823 184.279 33.9301 184.138 34.0156C183.878 34.1695 183.627 34.3439 183.36 34.4875C183.083 34.638 182.791 34.7611 182.51 34.9081C182.298 35.0175 182.092 35.1406 181.883 35.2603C181.729 35.3492 181.575 35.4279 181.4 35.486C181.15 35.5681 180.903 35.6672 180.67 35.7903C180.201 36.0399 179.708 36.2348 179.214 36.4298C178.851 36.5734 178.477 36.6965 178.107 36.8127C177.648 36.9598 177.179 37.0658 176.73 37.2367C175.555 37.6915 174.259 37.8591 173.016 38.0745C172.45 38.1737 171.518 38.3002 170.946 38.3617C170.751 38.3823 170.552 38.4028 170.357 38.4199C170.041 38.4472 169.73 38.478 169.414 38.4985C169.037 38.5224 168.657 38.5498 168.28 38.5601C167.862 38.5737 167.444 38.5772 167.03 38.5806C166.536 38.5806 166.043 38.5943 165.549 38.5806C164.905 38.5601 164.261 38.5224 163.62 38.4883C163.291 38.4712 162.966 38.4541 162.637 38.4301C162.417 38.413 162.243 38.4917 162.102 38.6592C162.03 38.7481 161.951 38.8302 161.893 38.9294C161.27 39.9689 160.715 40.9947 160.334 42.1676C159.83 43.7166 159.251 45.2382 158.511 46.6881C158.158 47.3788 157.751 48.0901 157.23 48.6748C156.915 49.027 156.551 49.3347 156.185 49.6322C155.667 50.0494 155.037 50.3127 154.4 50.4939C154.067 50.5862 153.728 50.6581 153.385 50.7093C153.149 50.7435 152.703 50.8769 152.484 50.7538C152.33 50.6649 152.409 50.5144 152.467 50.3948C152.679 49.9742 152.768 49.5125 152.888 49.0646C153.104 48.2542 153.214 47.4267 153.306 46.5958C153.375 45.9939 153.426 45.3887 153.471 44.7869C153.546 43.7679 153.67 42.7591 153.903 41.7641C154.019 41.2614 154.314 40.8477 154.585 40.4202C154.787 40.0988 154.999 39.7876 155.208 39.4731C155.369 39.2337 155.554 39.0046 155.698 38.755C155.811 38.5601 155.911 38.3481 155.965 38.1326C156.048 37.8044 156.013 37.4898 155.784 37.206C155.506 36.8606 155.239 36.5118 154.927 36.1972C154.598 35.8655 154.3 35.4997 153.964 35.1782C153.392 34.6277 153.049 33.9541 152.782 33.2223C152.498 32.4427 152.272 31.6494 152.063 30.8492C151.915 30.2782 151.765 29.7105 151.59 29.1463C151.487 28.8112 151.398 28.4727 151.316 28.1342C151.168 27.505 150.939 26.9032 150.713 26.3014C150.682 26.2193 150.665 26.1338 150.637 26.0449L150.634 26.0381Z" fill="white"/>
<path d="M168.842 29.2353C168.472 28.7087 168.126 28.1684 167.76 27.6384C167.53 27.3067 167.28 26.9887 167.044 26.6604C166.687 26.1715 166.341 25.6756 165.978 25.1935C165.584 24.6703 165.18 24.1574 164.779 23.6411C164.597 23.4085 164.419 23.176 164.237 22.9435C164.186 22.8785 164.134 22.8136 164.087 22.7486C163.96 22.5845 163.83 22.4203 163.703 22.2596C163.703 22.2562 163.696 22.2528 163.692 22.2494C163.682 22.2357 163.672 22.2254 163.662 22.2117C163.48 21.9861 163.292 21.7706 163.093 21.5586C162.784 21.2235 162.479 20.8884 162.154 20.5704C161.801 20.2285 161.428 19.907 161.064 19.5754C161.037 19.5514 161.013 19.5172 160.989 19.4899C160.698 19.1582 160.417 18.8197 160.108 18.5016C159.601 17.9716 159.098 17.445 158.731 16.8022C158.525 16.4397 158.296 16.0909 158.104 15.7251C157.782 15.0959 157.528 14.4359 157.281 13.7726C157.158 13.4409 157.028 13.1126 156.908 12.7809C156.716 12.2612 156.548 11.7312 156.339 11.2182C156.065 10.5412 155.77 9.87098 155.476 9.20419C155.13 8.42455 154.599 7.76118 154.067 7.10465C153.896 6.89264 153.677 6.71141 153.454 6.54386C152.916 6.14037 152.344 5.80526 151.686 5.61719C151.186 5.47357 150.682 5.37099 150.165 5.30602C150.12 5.29918 150.069 5.32312 150.01 5.3368C149.997 5.69584 150.089 6.02068 150.226 6.33185C150.387 6.68748 150.562 7.03968 150.747 7.38162C151.097 8.02448 151.463 8.66049 151.813 9.29993C152.07 9.76839 152.241 10.2676 152.395 10.7771C152.412 10.8387 152.395 10.9139 152.392 10.996C152.313 10.9857 152.262 10.9891 152.217 10.972C151.946 10.866 151.672 10.7635 151.412 10.6404C150.384 10.148 149.318 9.75472 148.263 9.33071C147.9 9.18367 147.513 9.1016 147.149 8.95457C146.324 8.61946 145.457 8.43139 144.6 8.22623C144.384 8.17493 144.172 8.12706 143.956 8.08603C143.877 8.06893 143.795 8.05525 143.716 8.04158C143.579 8.01422 143.442 7.98686 143.301 7.96293C143.188 7.94241 143.079 7.92531 142.966 7.9048C142.811 7.87744 142.654 7.85009 142.5 7.82615C142.318 7.79538 142.136 7.7646 141.958 7.73383C141.701 7.68937 141.437 7.67228 141.174 7.64492C141.102 7.63808 141.03 7.63124 140.961 7.62098C140.865 7.61073 140.769 7.60047 140.677 7.59021C140.67 7.59021 140.66 7.59021 140.653 7.59021C140.57 7.58337 140.488 7.57311 140.406 7.56627C140.379 7.56627 140.348 7.56285 140.32 7.55943C140.259 7.5526 140.197 7.54918 140.135 7.54576C140.101 7.54576 140.067 7.54234 140.033 7.53892C139.974 7.5355 139.916 7.53208 139.858 7.52866C139.824 7.52866 139.789 7.52524 139.755 7.52182C139.693 7.52182 139.632 7.5184 139.57 7.51498C139.539 7.51498 139.512 7.51498 139.481 7.51498C139.388 7.51498 139.299 7.51498 139.207 7.51498C138.84 7.52182 138.473 7.5184 138.107 7.5184C137.576 7.5184 137.048 7.5184 136.517 7.59705C136.106 7.6586 135.688 7.66886 135.273 7.71673C134.783 7.77486 134.297 7.83983 133.807 7.91506C133.296 7.9937 132.782 8.07919 132.275 8.17493C131.593 8.30145 130.949 8.58185 130.257 8.68443C130.209 8.69127 130.161 8.71863 130.113 8.7323C129.393 8.92721 128.708 9.2247 127.982 9.40251C127.731 9.46406 127.502 9.382 127.296 9.2418C127.289 9.23496 127.279 9.22812 127.272 9.21786C127.211 9.15289 127.149 9.09134 127.094 9.01954C126.991 8.8896 126.882 8.77334 126.734 8.69127C126.724 8.68443 126.714 8.67759 126.707 8.67075C126.645 8.60236 126.587 8.53739 126.532 8.47926C126.426 8.36642 126.32 8.25358 126.217 8.13732C125.878 7.71673 125.521 7.3064 125.21 6.86871C124.887 6.41734 124.596 5.94204 124.24 5.51803C124.092 5.34364 123.959 5.16241 123.812 4.98801C123.462 4.57768 123.167 4.12289 122.746 3.76727C122.283 3.37062 121.814 2.99448 121.259 2.7346C120.786 2.51234 120.286 2.35162 119.775 2.30033C119.289 2.25246 118.792 2.2251 118.302 2.31059C118.13 2.34137 117.959 2.3824 117.784 2.41659C117.757 2.62176 117.86 2.71066 117.935 2.80641C118.408 3.42533 118.709 4.13657 119.014 4.84098C119.251 5.38467 119.412 5.95572 119.631 6.50967C119.926 7.25852 120.159 8.04158 120.594 8.72888C120.728 8.94089 120.878 9.14947 121.057 9.32045C121.413 9.65897 121.797 9.97014 122.167 10.295C122.386 10.4865 122.605 10.6745 122.766 10.9242C122.869 11.0815 122.927 11.249 122.88 11.4268C122.801 11.738 122.684 12.015 122.551 12.2954C122.461 12.4219 122.372 12.5484 122.324 12.6886C122.304 12.7501 122.28 12.8083 122.256 12.8664C121.948 13.4204 121.588 13.9914 121.444 14.6035C121.423 14.6856 121.406 14.7642 121.389 14.8463C121.382 14.8702 121.379 14.8976 121.375 14.9215C121.365 14.9796 121.351 15.0343 121.341 15.0925C121.334 15.1232 121.331 15.1506 121.324 15.1814C121.314 15.2361 121.307 15.2908 121.296 15.3455C121.293 15.3763 121.286 15.4036 121.283 15.4344C121.272 15.496 121.266 15.5575 121.259 15.6191C121.259 15.6396 121.252 15.6601 121.252 15.684C121.242 15.7661 121.235 15.8482 121.231 15.9336C121.231 15.9507 121.231 15.9713 121.231 15.9918C121.228 16.0567 121.225 16.1217 121.221 16.1867C121.221 16.214 121.221 16.2448 121.221 16.2722C121.221 16.3029 121.221 16.3371 121.221 16.3679C121.221 17.0997 121.221 17.8314 121.214 18.5632C121.214 18.6008 121.214 18.6384 121.214 18.676C121.214 18.7068 121.214 18.7376 121.214 18.7649C121.214 18.8402 121.214 18.9154 121.214 18.9906C121.214 19.083 121.214 19.1753 121.214 19.2676C121.214 19.2881 121.214 19.3086 121.214 19.3326C121.214 19.3975 121.214 19.4625 121.214 19.5309C121.214 19.5617 121.214 19.5925 121.214 19.6232C121.214 19.6814 121.211 19.7395 121.207 19.7976C121.207 19.8284 121.207 19.8626 121.201 19.8934C121.197 19.9515 121.194 20.013 121.187 20.0712C121.187 20.0985 121.183 20.1293 121.18 20.1567C121.17 20.2421 121.159 20.3311 121.146 20.4165C121.115 20.6046 121.101 20.7927 121.094 20.9807C121.087 21.1551 121.163 21.2338 121.32 21.2201C121.526 21.2509 121.828 21.1757 122.047 21.1038C122.047 21.1038 122.05 21.1038 122.054 21.1038C122.15 21.0833 122.249 21.0526 122.335 21.0013C122.4 20.9636 122.461 20.9226 122.527 20.885C122.595 20.8474 122.667 20.8098 122.739 20.7824C122.777 20.7687 122.814 20.7482 122.852 20.7345C122.907 20.7174 122.962 20.7072 123.02 20.7038C123.054 20.7038 123.092 20.6764 123.123 20.6559C123.301 20.5396 123.479 20.4234 123.657 20.3071C123.733 20.2592 123.805 20.2114 123.88 20.1567C123.962 20.0985 124.045 20.037 124.127 19.9754C124.435 19.7361 124.685 19.442 124.857 19.0727C125.014 18.7273 125.141 18.3683 125.285 18.0161C125.364 17.8485 125.446 17.681 125.525 17.51C125.556 17.4553 125.583 17.4006 125.617 17.3459C125.645 17.3014 125.645 17.2399 125.655 17.1852V17.1783C125.727 16.9663 125.789 16.7509 125.85 16.5355C125.933 16.32 126.004 16.1046 126.022 15.8687C126.056 15.7251 126.09 15.578 126.124 15.4344C126.135 15.3968 126.148 15.3558 126.159 15.3181C126.19 15.195 126.237 15.0754 126.237 14.9523C126.237 14.9523 126.237 14.9454 126.237 14.942C126.275 14.7676 126.313 14.5966 126.354 14.4257C126.354 14.4188 126.354 14.412 126.357 14.4052C126.375 14.3573 126.395 14.3128 126.416 14.265C126.525 14.0153 126.608 13.7555 126.645 13.4853C126.727 13.352 126.83 13.222 126.926 13.1024C127.077 12.9827 127.214 12.8493 127.296 12.6612C127.355 12.5963 127.416 12.5347 127.478 12.4732C127.68 12.4082 127.81 12.2646 127.937 12.1073C127.961 12.0765 127.988 12.0492 128.012 12.0184C128.084 11.9671 128.156 11.9158 128.228 11.8714C128.317 11.8166 128.41 11.7653 128.499 11.7141C128.53 11.7072 128.561 11.7004 128.591 11.697C128.663 11.6901 128.753 11.6662 128.8 11.6183C128.866 11.5602 128.931 11.5157 129.003 11.4781C129.057 11.4576 129.116 11.4337 129.171 11.4131C129.345 11.3619 129.534 11.3448 129.719 11.3174C129.945 11.2832 130.175 11.2661 130.39 11.2011C130.538 11.1567 130.685 11.1328 130.832 11.1225C130.898 11.1225 130.963 11.1191 131.031 11.1225C131.079 11.1225 131.131 11.1225 131.178 11.1259C131.23 11.1259 131.278 11.1328 131.329 11.1396C131.466 11.1567 131.607 11.1533 131.744 11.1567C131.908 11.1635 132.069 11.1601 132.234 11.1738C132.371 11.184 132.508 11.2114 132.648 11.2217C133.204 11.2593 133.752 11.3448 134.286 11.4986C135.03 11.7141 135.746 11.9842 136.39 12.4321C136.98 12.8425 137.576 13.2425 138.117 13.7213C138.264 13.8512 138.412 13.9777 138.563 14.1042C138.635 14.1624 138.706 14.2239 138.775 14.2821C138.888 14.3744 138.998 14.4667 139.111 14.559C139.224 14.6514 139.334 14.7437 139.447 14.836C139.505 14.8839 139.563 14.9352 139.621 14.9865C139.728 15.0788 139.837 15.1677 139.94 15.26C140.57 15.8174 141.218 16.3508 141.897 16.8501C141.914 16.8637 141.934 16.8774 141.951 16.8911C141.958 16.8979 141.965 16.9013 141.972 16.9082C142.037 16.9561 142.106 17.0039 142.171 17.0518C142.232 17.0963 142.297 17.1441 142.359 17.1886C142.506 17.2946 142.657 17.3972 142.808 17.4929C143.147 17.7118 143.483 17.9409 143.846 18.1118C144.556 18.4469 145.282 18.7376 145.998 19.0556C146.485 19.2744 146.93 19.5617 147.321 19.9276C147.41 20.013 147.519 20.0883 147.533 20.2456C147.509 20.2763 147.489 20.3242 147.451 20.355C146.947 20.7209 146.385 20.9773 145.823 21.2406C145.35 21.4595 144.843 21.586 144.34 21.6886C143.733 21.8151 143.123 21.9279 142.506 21.9826C142.239 22.0066 141.969 22.0168 141.701 22.0203C141.276 22.0271 140.851 22.01 140.427 21.9895C140.046 21.969 139.666 21.945 139.286 21.9245C139.251 21.9245 139.217 21.9177 139.179 21.9143C139.114 21.9074 139.049 21.9006 138.984 21.8903C138.312 21.7843 137.631 21.7228 136.966 21.5723C136.349 21.4321 135.725 21.3398 135.102 21.2304C135.057 21.2235 135.009 21.2304 134.896 21.2372C134.992 21.3227 135.037 21.3808 135.095 21.415C135.859 21.863 136.64 22.2801 137.442 22.646C138.062 22.9298 138.689 23.1931 139.323 23.453C139.649 23.5864 139.988 23.6992 140.327 23.7984C140.862 23.9522 141.403 24.0753 141.938 24.2258C142.99 24.5199 144.069 24.6737 145.152 24.725C146.06 24.7661 146.975 24.8174 147.876 24.6464C147.883 24.6464 147.889 24.6464 147.9 24.643C148.143 24.6156 148.39 24.5814 148.633 24.5438C149.02 24.4993 149.407 24.4549 149.781 24.3386C150.096 24.2429 150.425 24.1882 150.727 24.0343C150.812 24.007 150.901 23.9762 150.987 23.9454C150.997 23.942 151.008 23.9386 151.018 23.9351C151.062 23.9249 151.107 23.918 151.151 23.9112C151.357 23.8804 151.539 23.8052 151.72 23.7129C151.922 23.6069 152.131 23.5248 152.337 23.4291C152.724 23.2478 153.146 23.1418 153.495 22.8785C153.564 22.8272 153.643 22.7828 153.718 22.7452C153.762 22.7212 153.81 22.6973 153.855 22.6734C153.889 22.6563 153.924 22.6392 153.954 22.6255C154.016 22.5981 154.064 22.581 154.112 22.5776C154.16 22.5708 154.201 22.5776 154.246 22.5947C154.311 22.6187 154.379 22.67 154.468 22.752C154.496 22.776 154.523 22.8033 154.551 22.8307C155.006 23.2684 155.496 23.6616 155.997 24.0514C156.994 24.831 158.08 25.4807 159.146 26.1544C159.762 26.5442 160.413 26.8895 161.051 27.252C161.897 27.7307 162.747 28.206 163.59 28.6847C164.395 29.1395 165.21 29.5601 166.098 29.8439C166.978 30.1243 167.839 30.1072 168.692 29.755C168.908 29.6661 169.031 29.5054 168.853 29.2524L168.842 29.2353Z" fill="white"/>
<path d="M75.6785 46.5097C74.8197 47.7075 73.9644 48.8478 72.8397 49.7515C72.2576 50.2212 71.6395 50.6265 70.9603 50.9492C69.3038 51.7381 67.7514 51.5624 66.2745 50.5153C65.06 49.6582 64.2119 48.5107 63.619 47.1624C63.3459 46.542 63.0944 45.9144 62.8177 45.251C61.7505 47.2807 60.4748 49.0414 58.5595 50.2392C56.8922 51.2827 55.1242 51.6054 53.2233 50.8703C52.2675 50.5009 51.5955 49.8411 51.0781 48.9984C50.3522 47.8186 50.0827 46.499 49.9066 45.1506C49.8851 44.9785 49.9426 44.792 49.8024 44.6378C49.6263 44.7131 49.612 44.8924 49.5437 45.0359C48.7963 46.5707 47.8979 48.0015 46.5755 49.1239C45.0555 50.4149 43.3019 51.0281 41.3112 50.7412C39.5289 50.483 38.2712 49.4646 37.4519 47.8796C35.8924 44.8745 37.186 41.4642 39.1408 39.6533C40.5566 38.3444 42.2635 37.6523 44.1284 37.3009C46.1264 36.9243 48.0632 36.3434 49.9821 35.6872C50.133 35.637 50.2049 35.5581 50.2228 35.411C50.3845 33.9372 50.8086 32.4956 50.7259 30.9931C50.6756 30.0751 50.478 29.1965 50.0575 28.3789C49.6335 27.5505 48.9723 27.027 48.0345 26.8477C47.111 26.6719 46.1982 26.6468 45.2819 26.862C43.805 27.2063 42.5653 28.906 42.6911 30.4121C42.7917 31.6027 43.7763 32.2661 45.0951 31.9972C45.9754 31.8179 46.748 31.4019 47.4056 30.7923C47.6068 30.6058 47.6967 30.5592 47.8548 30.8317C48.1962 31.4126 48.5052 31.9972 48.6166 32.6713C48.7783 33.6575 48.4908 34.4643 47.6679 35.056C46.4641 35.9202 45.0986 36.1103 43.6613 35.9991C41.0345 35.7983 39.0402 33.2021 39.9206 30.0858C40.8512 26.7974 43.399 24.7319 46.8702 24.3554C48.5842 24.1689 50.2408 24.4379 51.8506 24.9578C54.4702 25.8041 56.0046 27.6366 56.5364 30.3117C56.9497 32.4095 56.8419 34.5109 56.4969 36.6052C56.1124 38.9217 55.7207 41.2347 55.6489 43.5871C55.6165 44.6163 55.7495 45.6347 56.0118 46.6281C56.3711 47.9764 57.3054 48.335 58.4805 47.5461C59.4147 46.9221 60.0831 46.0435 60.6688 45.1004C61.1647 44.3043 61.5636 43.458 61.9661 42.6117C62.232 42.0523 62.2463 41.475 62.2032 40.8725C61.9912 37.8782 62.2176 34.9054 62.6488 31.9434C63.3316 27.2134 64.5246 22.609 66.041 18.0835C67.1262 14.8417 68.3983 11.6753 69.9973 8.64867C71.1831 6.40742 72.5019 4.25582 74.2771 2.41261C75.0173 1.6452 75.851 1.00689 76.8248 0.551472C79.1569 -0.54226 81.2447 0.594504 81.5537 3.14057C81.816 5.28141 81.4962 7.36847 80.9859 9.44835C79.9259 13.7516 78.237 17.8181 76.3109 21.7914C74.1369 26.2775 71.6503 30.5879 68.869 34.7297C68.621 35.0955 68.5743 35.5043 68.5276 35.9131C68.1647 39.0616 68.1323 42.1993 68.9229 45.2977C69.0954 45.979 69.3936 46.6137 69.8069 47.1839C70.5004 48.1485 71.5353 48.2812 72.4336 47.4959C73.4829 46.5779 74.198 45.4124 74.7981 44.1716C74.949 43.8597 74.8628 43.5262 74.8161 43.207C74.3777 40.2737 74.4567 37.3439 74.8053 34.4105C75.0065 32.7395 75.3084 31.0935 76.0127 29.5479C76.3576 28.7877 76.7781 28.0741 77.3566 27.4573C79.2898 25.3881 82.1143 25.1909 84.317 26.9732C84.8848 27.4358 84.9063 27.4429 84.6045 28.1171C83.3144 30.9859 82.3802 33.9766 81.7226 37.0391C81.18 39.5672 80.7811 42.1205 80.9248 44.7275C80.9787 45.6706 81.1692 46.5779 81.4962 47.46C81.586 47.6967 81.7118 47.9154 81.8735 48.1127C82.6173 49.0056 83.4654 49.063 84.2955 48.2525C85.3304 47.2413 85.9304 45.9575 86.4766 44.6522C87.3534 42.5615 87.8493 40.3633 88.3811 38.1687C89.5777 33.2415 91.2702 28.5044 94.0228 24.1904C95.9704 21.1351 98.3636 18.5209 101.533 16.6849C103.693 15.4334 106.018 14.6409 108.515 14.4974C111.602 14.3217 114.466 15.6629 115.58 18.8365C115.986 19.9948 115.96 21.1674 115.626 22.3436C115.558 22.5911 115.472 22.7524 115.166 22.5875C113.014 21.4471 110.678 21.5511 108.375 21.7304C104.185 22.0603 101.059 24.2299 98.7014 27.5935C96.858 30.2221 95.6075 33.1411 94.472 36.1139C93.8503 37.7348 93.358 39.4023 92.6573 40.998C91.281 44.1358 89.5454 47.0189 86.836 49.2207C85.7364 50.1137 84.5182 50.7986 83.1456 51.1679C80.8745 51.7776 78.9664 51.1751 77.4249 49.4072C76.7924 48.6828 76.3289 47.8545 75.9264 46.9902C75.8546 46.8325 75.7755 46.6783 75.6821 46.4954L75.6785 46.5097ZM69.8176 28.9993C70.0404 28.4255 70.3135 28.0203 70.5543 27.5971C73.1667 22.9748 75.5383 18.2412 77.2955 13.2208C78.0178 11.1625 78.7077 9.07899 78.5029 6.84133C78.4741 6.50424 78.4777 6.1313 78.0825 5.98427C77.68 5.83007 77.3638 6.0022 77.0871 6.29625C76.4978 6.9238 76.1061 7.67687 75.7467 8.44427C74.0974 11.9657 73.0194 15.688 71.9701 19.4139C71.1616 22.2827 70.4752 25.1873 69.8356 28.0992C69.7817 28.343 69.6595 28.5976 69.8141 29.0028L69.8176 28.9993ZM50.018 37.9356C49.9282 37.7527 50.1294 37.412 49.7413 37.5483C48.6885 37.9177 47.5925 38.1651 46.5827 38.6492C45.5406 39.1477 44.7177 39.8756 44.2578 40.9514C43.9308 41.7188 43.6721 42.5113 43.5786 43.3397C43.4816 44.1967 43.4421 45.061 43.8374 45.875C44.3368 46.9042 45.4005 47.1839 46.3384 46.5348C46.6366 46.3304 46.8953 46.0866 47.1109 45.7961C48.843 43.4365 49.4503 40.6753 50.0216 37.932L50.018 37.9356Z" fill="white"/>
<path d="M120.061 45.771C119.295 46.8253 118.444 47.7325 117.466 48.525C114.71 50.7484 111.555 51.8851 108.012 51.9138C104.081 51.9461 101.185 50.171 99.2586 46.8002C97.8752 44.376 97.4871 41.7439 97.7889 39.0078C98.1626 35.6047 99.3664 32.5243 101.627 29.9137C103.319 27.9557 105.407 26.5715 107.991 26.1233C110.326 25.718 112.626 25.883 114.811 26.9409C116.963 27.9844 118.437 30.0033 118.167 32.7C118.049 33.887 117.639 34.952 117.078 35.9704C115.824 38.244 113.948 39.9186 111.807 41.3315C110.193 42.3965 108.429 43.1532 106.629 43.8417C106.115 44.0389 105.921 43.6732 105.687 43.3863C105.439 43.0886 105.364 42.7516 105.651 42.4145C105.831 42.2065 106.061 42.0631 106.305 41.9555C108.548 40.9693 109.949 39.205 110.808 36.9996C111.659 34.8157 112.134 32.5601 111.681 30.2005C111.613 29.8527 111.512 29.5084 111.383 29.1749C111.081 28.3932 110.441 28.1278 109.651 28.4398C109.043 28.6801 108.619 29.1391 108.235 29.6375C107.164 31.0397 106.524 32.6534 105.91 34.2814C104.836 37.1287 104.282 40.0477 104.588 43.0994C104.721 44.437 105.069 45.6993 105.885 46.793C106.708 47.8939 107.822 48.4712 109.209 48.5394C113.488 48.7509 116.582 46.7105 119.037 43.4401C119.206 43.2142 119.188 42.9811 119.159 42.7229C118.58 37.3295 120.09 32.6247 124.032 28.8343C126.511 26.4496 129.573 25.6176 132.986 26.0264C133.974 26.1448 134.916 26.385 135.821 26.7974C139.005 28.2533 140.216 30.95 139.145 34.2778C138.481 36.3434 137.183 38.0001 135.602 39.4453C133.367 41.4893 130.712 42.8197 127.891 43.8561C127.474 44.0067 127.284 43.7305 127.086 43.4724C126.838 43.146 126.691 42.8018 126.989 42.4181C127.129 42.2352 127.312 42.1061 127.517 42.0164C130.37 40.7434 131.829 38.3766 132.641 35.5222C133.173 33.6539 133.285 31.7533 132.929 29.8348C132.914 29.7487 132.886 29.6626 132.861 29.5766C132.451 28.2354 131.43 27.9306 130.331 28.8163C129.63 29.3794 129.152 30.1181 128.735 30.8926C127.244 33.6682 126.223 36.6123 125.893 39.7429C125.706 41.5216 125.735 43.3253 126.31 45.0789C126.957 47.044 128.39 48.3601 130.277 48.5179C131.793 48.6434 133.281 48.5322 134.715 47.9298C137.532 46.7464 139.674 44.8386 141.111 42.1563C141.208 41.9734 141.301 41.7833 141.352 41.5825C141.438 41.2562 141.582 41.041 141.963 41.0805C142.354 41.1199 142.742 41.1414 142.879 41.6256C143.019 42.1204 142.972 42.601 142.803 43.0671C142.139 44.9068 141.025 46.4595 139.609 47.7935C136.687 50.544 133.198 51.9282 129.184 51.9138C124.995 51.8995 122.073 49.8554 120.251 46.1619C120.197 46.0543 120.147 45.9503 120.061 45.7782V45.771Z" fill="white"/>
<path d="M14.2315 42.5902C14.0159 43.0528 13.8398 43.4114 13.6817 43.7772C12.9091 45.5881 12.0072 47.3273 10.7172 48.8335C9.8727 49.8196 8.90608 50.6444 7.66276 51.0962C5.94153 51.7238 3.94 51.1931 2.72903 49.8196C1.75881 48.7223 1.39588 47.3811 1.15871 45.9969C0.799372 43.9135 1.09762 41.8551 1.45337 39.7967C1.74444 38.1256 2.21517 36.5012 2.58888 34.8516C3.12071 32.5028 3.34709 30.136 3.20336 27.7334C3.18539 27.4107 3.26804 27.2493 3.59144 27.1561C4.60119 26.8656 5.62531 26.6719 6.67458 26.6612C8.64736 26.6433 9.71819 27.6151 9.93739 29.5658C10.1494 31.4593 9.80802 33.2917 9.35885 35.1134C8.78031 37.4766 8.05085 39.8039 7.66276 42.2101C7.44357 43.5871 7.25312 44.9785 7.50825 46.377C7.71307 47.5174 8.5144 47.8724 9.50618 47.2664C9.96973 46.9831 10.3398 46.5958 10.6597 46.1583C12.0755 44.2541 12.848 42.0595 13.6134 39.8505C14.0662 38.538 14.1524 37.1825 14.3357 35.8342C14.5872 33.9802 15.0724 32.1908 16.2115 30.6524C17.444 28.9885 19.061 28.0095 21.1847 28.0167C22.3346 28.0203 23.3372 28.4506 24.1996 29.2037C24.3505 29.3363 24.4224 29.4332 24.2643 29.6376C22.9635 31.3158 22.2592 33.263 21.6878 35.2748C21.0266 37.5985 20.6745 39.976 20.466 42.3751C20.3259 43.9923 20.5343 45.5774 21.0015 47.1301C21.156 47.6393 21.4399 48.0732 21.8387 48.4282C22.428 48.9518 23.0928 48.9626 23.6929 48.4462C24.081 48.1127 24.3793 47.7003 24.6272 47.2592C25.601 45.5379 26.1939 43.6696 26.7006 41.7762C27.3474 39.3556 27.8289 36.8885 28.5871 34.4966C30.0353 29.9244 31.947 25.5818 34.9474 21.7699C37.4053 18.6465 40.4417 16.3299 44.2759 15.1501C45.8318 14.6696 47.4273 14.3863 49.0839 14.5333C52.3611 14.8202 54.7471 17.1009 55.0884 20.3498C55.1639 21.0527 55.0345 21.7412 54.7722 22.401C54.6824 22.6305 54.6141 22.7488 54.2979 22.5839C53.148 21.985 51.9227 21.6408 50.6039 21.6802C49.145 21.7233 47.6824 21.6264 46.2307 21.9133C42.6194 22.6269 39.9351 24.6279 37.9515 27.6545C36.0614 30.5377 34.7714 33.6969 33.6179 36.9136C32.7159 39.4345 31.7996 41.9412 30.3659 44.2219C28.8351 46.6603 26.9917 48.794 24.4619 50.2643C23.5528 50.7914 22.5862 51.1823 21.5513 51.3724C19.3772 51.7668 17.6776 50.9707 16.4091 49.2351C15.1406 47.4995 14.5369 45.5092 14.271 43.4042C14.2423 43.1676 14.3716 42.9381 14.2423 42.583L14.2315 42.5902Z" fill="white"/>
</svg>
